<?xml version="1.0" encoding="UTF-8" standalone="no"?>
<!-- Created with Inkscape (http://www.inkscape.org/) -->

<svg
   xmlns:dc="http://purl.org/dc/elements/1.1/"
   xmlns:cc="http://creativecommons.org/ns#"
   xmlns:rdf="http://www.w3.org/1999/02/22-rdf-syntax-ns#"
   xmlns:svg="http://www.w3.org/2000/svg"
   xmlns="http://www.w3.org/2000/svg"
   xmlns:sodipodi="http://sodipodi.sourceforge.net/DTD/sodipodi-0.dtd"
   xmlns:inkscape="http://www.inkscape.org/namespaces/inkscape"
   width="156.84641mm"
   height="114.36861mm"
   viewBox="0 0 156.84641 114.36861"
   version="1.1"
   id="svg8"
   inkscape:version="0.92.1 r15371"
   sodipodi:docname="discerningpip.svg">
  <defs
     id="defs2" />
  <sodipodi:namedview
     id="base"
     pagecolor="#ffffff"
     bordercolor="#666666"
     borderopacity="1.0"
     inkscape:pageopacity="0.0"
     inkscape:pageshadow="2"
     inkscape:zoom="1"
     inkscape:cx="44.230493"
     inkscape:cy="245.37121"
     inkscape:document-units="mm"
     inkscape:current-layer="layer1"
     showgrid="false"
     inkscape:window-width="1920"
     inkscape:window-height="1001"
     inkscape:window-x="-9"
     inkscape:window-y="-9"
     inkscape:window-maximized="1" />
  <metadata
     id="metadata5">
    <rdf:RDF>
      <cc:Work
         rdf:about="">
        <dc:format>image/svg+xml</dc:format>
        <dc:type
           rdf:resource="http://purl.org/dc/dcmitype/StillImage" />
        <dc:title />
      </cc:Work>
    </rdf:RDF>
  </metadata>
  <g
     inkscape:label="Layer 1"
     inkscape:groupmode="layer"
     id="layer1"
     transform="translate(-30.717545,-88.500827)">
    <path
       style="fill:#620000;fill-opacity:1;stroke:#000000;stroke-width:0.58826816;stroke-linecap:butt;stroke-linejoin:miter;stroke-miterlimit:4;stroke-dasharray:none;stroke-opacity:1"
       d="m 40.28396,165.20337 c 0,0 -2.451869,12.38194 4.535955,16.79531 6.987831,4.41336 19.001987,8.21376 19.001987,8.21376 0,0 -14.098249,-23.17017 -23.537942,-25.00907 z"
       id="path4633"
       inkscape:connector-curvature="0" />
    <path
       style="fill:#620000;fill-opacity:1;stroke:#000000;stroke-width:0.61120254;stroke-linecap:butt;stroke-linejoin:miter;stroke-miterlimit:4;stroke-dasharray:none;stroke-opacity:1"
       d="m 115.31118,166.4293 17.0405,14.34344 c 0,0 -8.21377,0 -11.76898,2.08409 -3.55521,2.08409 -10.05267,6.98782 -14.22084,6.98782 -4.16819,0 -10.910833,1.34854 -13.730487,-0.12259 -2.819645,-1.47111 22.679807,-23.29276 22.679807,-23.29276 z"
       id="path4635"
       inkscape:connector-curvature="0" />
    <path
       style="fill:#848484;fill-opacity:1;stroke:#000000;stroke-width:0.56533366;stroke-linecap:butt;stroke-linejoin:miter;stroke-miterlimit:4;stroke-dasharray:none;stroke-opacity:1"
       d="m 105.63289,105.06745 c 3.81422,0.69349 23.05866,-0.52013 23.05866,-0.52013 0,0 -0.34675,24.09891 -0.86687,28.25986 -4.18511,35.60556 -22.16267,49.845 -52.185391,69.6961 0,0 -25.485887,-26.69949 -35.888289,-41.26286 -10.402395,-14.56336 -7.281678,-52.53213 -7.281678,-52.53213 13.661556,-2.5929 21.991531,-3.56476 31.575629,-10.807779 3.314114,-2.531726 11.096389,-6.964819 15.235183,-8.263284 2.903634,-0.858315 6.761557,-1.386991 8.668669,0 1.907105,1.386981 -8.321926,7.801794 -8.321926,7.801794 7.89278,4.602679 17.154319,6.058279 26.006013,7.628429 z"
       id="path3693"
       inkscape:connector-curvature="0"
       sodipodi:nodetypes="ccccscccscc" />
    <path
       style="fill:none;stroke:#000000;stroke-width:0.56533366;stroke-linecap:butt;stroke-linejoin:miter;stroke-miterlimit:4;stroke-dasharray:none;stroke-opacity:1"
       d="m 79.626877,97.439021 -1.786965,1.51431 -1.897217,2.473279"
       id="path4500"
       inkscape:connector-curvature="0"
       sodipodi:nodetypes="ccc" />
    <path
       style="fill:#12006c;fill-opacity:1;stroke:#000000;stroke-width:0.58078802;stroke-linecap:butt;stroke-linejoin:miter;stroke-miterlimit:4;stroke-dasharray:none;stroke-opacity:1"
       d="m 31.429081,118.35645 c 0,0 14.04324,-0.78275 18.377579,-0.23483 4.334331,0.54792 7.888484,0.54792 9.882282,0.46966 1.99379,-0.0784 26.612813,-1.40894 27.653054,-1.56549 1.040235,-0.15655 7.021621,-0.70447 9.448852,-0.6262 2.427226,0.0783 11.702702,0.54792 14.129932,0.6262 2.42722,0.0783 9.8739,0.14848 12.56957,-2.03512 2.73915,-2.21883 5.28788,-2.03513 5.28788,-2.03513 0,0 1.90711,1.17411 1.47368,4.38334 -0.43343,3.20923 -0.17337,4.53989 -0.95355,5.24436 -0.78018,0.70446 -4.16096,2.58304 -5.72132,2.89614 -1.56037,0.31309 -8.14856,0.78273 -12.30952,1.48721 -4.16095,0.70446 -8.14854,1.87856 -11.789387,4.38334 -3.640843,2.50476 -4.247649,2.66131 -6.934942,4.46161 -2.687283,1.8003 -10.835831,2.81786 -14.563362,3.05269 -3.727525,0.23482 -10.936366,0.86101 -12.829629,0.86101 -2.947347,0 -6.588185,-1.25238 -10.575774,-1.01757 -3.953668,0.23283 -8.928726,1.40894 -12.049451,1.17412 -3.120718,-0.23482 -8.928733,-1.17412 -9.882281,-2.19167 -0.953556,-1.01757 -2.34054,-18.47266 -1.213613,-19.33367 z"
       id="path4502"
       inkscape:connector-curvature="0"
       sodipodi:nodetypes="csssssscsscssssssssc" />
    <path
       style="fill:#12006c;fill-opacity:1;stroke:#000000;stroke-width:0.61120254;stroke-linecap:butt;stroke-linejoin:miter;stroke-miterlimit:4;stroke-dasharray:none;stroke-opacity:1"
       d="m 128.77823,112.95594 c 0,0 6.50151,-5.37458 7.54175,-4.68108 1.04024,0.69349 -4.68108,7.10831 -4.68108,7.10831 0,0 9.01542,1.9071 9.01542,3.2074 0,1.30031 -10.57578,0.43343 -10.57578,0.43343 z"
       id="path4523"
       inkscape:connector-curvature="0"
       sodipodi:nodetypes="cccscc" />
    <path
       style="fill:#ff0000;fill-opacity:1;stroke:#000000;stroke-width:0.54488868;stroke-linecap:butt;stroke-linejoin:miter;stroke-miterlimit:4;stroke-dasharray:none;stroke-opacity:1"
       d="m 55.171693,164.16376 c 0,0 -7.284093,3.85939 -5.39404,6.55237 1.890045,2.693 -0.113731,0.47065 3.268636,-2.22437 3.382367,-2.69503 4.483677,-2.81327 4.483677,-2.81327 z"
       id="path4527"
       inkscape:connector-curvature="0"
       sodipodi:nodetypes="csccc" />
    <path
       style="fill:#ff0000;fill-opacity:1;stroke:#000000;stroke-width:0.61120254;stroke-linecap:butt;stroke-linejoin:miter;stroke-miterlimit:4;stroke-dasharray:none;stroke-opacity:1"
       d="m 63.011647,163.77059 c 0,0 2.738284,4.68764 2.952857,8.21088 0.214574,3.52321 2.559835,-3.00542 1.421605,-5.58512 -1.138222,-2.57971 -4.374462,-2.62576 -4.374462,-2.62576"
       id="path4529"
       inkscape:connector-curvature="0" />
    <path
       style="fill:#ff0000;fill-opacity:1;stroke:#000000;stroke-width:0.47359601;stroke-linecap:butt;stroke-linejoin:miter;stroke-miterlimit:4;stroke-dasharray:none;stroke-opacity:1"
       d="m 55.171693,164.16376 c 0,0 1.540229,-2.84921 6.225708,-1.46625 4.685479,1.38296 4.817306,1.87094 4.817306,1.87094 0,0 -10.712287,4.12584 -11.043014,-0.40469 z"
       id="path4525"
       inkscape:connector-curvature="0" />
    <path
       style="fill:#ff0000;fill-opacity:1;stroke:#000000;stroke-width:0.61120254;stroke-linecap:butt;stroke-linejoin:miter;stroke-miterlimit:4;stroke-dasharray:none;stroke-opacity:1"
       d="m 49.556052,167.86819 c 0,0 -8.906669,0.63316 -9.495414,-2.73523 -0.588745,-3.3684 0.903522,-5.09269 2.756201,-5.18896 1.85268,-0.0962 4.231156,2.43281 7.305779,2.43529 3.07463,0.003 6.750357,0.17653 6.750357,0.17653 z"
       id="path4629"
       inkscape:connector-curvature="0" />
    <path
       style="opacity:1;fill:#ff0000;fill-opacity:1;stroke:#000000;stroke-width:0.61120254;stroke-linecap:butt;stroke-linejoin:miter;stroke-miterlimit:4;stroke-dasharray:none;stroke-opacity:1"
       d="m 120.21492,160.54482 c -4.78115,-2.45188 -5.51671,-4.16819 -9.4397,-4.65855 -3.923,-0.49038 -19.247181,5.14891 -21.453871,4.04558 -2.206683,-1.10334 -10.297848,1.96149 -13.362685,1.71631 -3.064838,-0.24519 -9.743957,2.92029 -9.743957,2.92029 0,0 4.840219,6.02904 11.950639,4.68051 7.11042,-1.34853 6.497452,-2.94225 11.891569,-4.65856 5.394112,-1.7163 17.163095,0.61297 22.189425,1.8389 5.02633,1.22593 10.04279,9.3672 19.00199,14.09825 1.68642,0.89054 14.09826,-0.85815 17.53088,-0.85815 3.43261,0 13.73046,0.49037 19.61495,-5.14893 5.88448,-5.63929 14.83381,-20.10534 16.05974,-25.49944 1.22594,-5.39412 5.02634,-19.00199 0.98075,-24.15092 -4.04558,-5.14893 -10.54304,11.2786 -11.4012,10.66563 -0.85815,-0.61297 -0.49037,-4.29077 -3.92298,-4.53596 -3.43262,-0.24519 -11.15601,1.34853 -14.34344,5.51671 -3.18743,4.16818 -3.43262,3.923 -3.43262,3.923 0,0 -5.27151,-3.80041 -7.84598,-3.55521 -2.57446,0.24519 -2.20669,0.61296 -4.16818,4.53595 -1.9615,3.92299 -10.78823,9.07192 -15.56937,8.33636 -1.96149,5.76189 -4.53596,10.78823 -4.53596,10.78823 z"
       id="path4631"
       inkscape:connector-curvature="0"
       sodipodi:nodetypes="cssscsssssssscsscsscc" />
    <path
       style="fill:none;stroke:#000000;stroke-width:0.49653041;stroke-linecap:butt;stroke-linejoin:miter;stroke-miterlimit:4;stroke-dasharray:none;stroke-opacity:1"
       d="m 32.070199,112.97855 c 0,0 11.523785,-2.0841 16.059739,-0.49039 4.535962,1.59373 4.045583,1.47113 4.045583,1.47113 0,0 18.511622,-4.16818 25.131671,-3.31002 6.620047,0.85815 33.100248,1.22593 33.100248,1.22593 l -0.0628,5.31847 6.10981,-0.14199 0.45046,-4.93129 11.64639,-1.83891"
       id="path4640"
       inkscape:connector-curvature="0"
       sodipodi:nodetypes="cscsccccc" />
    <path
       style="opacity:0.53699999;fill:#000000;fill-opacity:1;stroke-width:1.00314295;stroke-miterlimit:4;stroke-dasharray:none"
       d="m 84.444587,89.017043 c -3.840212,0.07687 -7.452242,1.586735 -10.792185,3.365731 -3.894864,1.994066 -7.620715,4.306046 -11.144942,6.898247 -4.564337,3.213459 -9.803377,5.359729 -15.207719,6.671509 -4.804226,1.1915 -9.691446,1.98731 -14.543873,2.95745 -0.27676,0.67423 -0.112769,1.52677 -0.221696,2.26488 0.08898,0.50465 -0.456493,1.81421 0.483888,1.44549 4.497044,-0.59916 9.072272,-1.25944 13.597817,-0.67928 1.927445,0.37209 3.755894,1.18854 5.622298,1.78407 7.415858,-1.49428 14.877358,-3.04389 22.441793,-3.37516 2.900353,0.009 5.78753,0.49219 8.693682,0.56012 9.072733,0.44739 18.15634,0.61361 27.23723,0.80733 -0.092,1.82179 -0.28404,3.66775 -0.26626,5.47624 2.02527,0.003 4.08595,0.0324 6.10981,-0.14199 0.26902,-0.74818 0.11819,-1.6471 0.21171,-2.44623 0.0324,-0.89398 0.0482,-1.78932 0.13308,-2.68115 3.79872,-0.56725 7.59582,-1.15989 11.37749,-1.82837 0.29624,-0.63554 0.12441,-1.46428 0.22986,-2.16477 0.01,-1.02424 0.14011,-2.07459 0.0621,-3.08208 -3.24539,0.0277 -6.5069,0.33667 -9.76069,0.41368 -4.27228,0.10868 -8.57007,0.3584 -12.83698,0.0585 -8.207024,-1.43354 -16.591974,-2.77942 -24.14335,-6.487099 -0.718478,-0.27661 -1.385846,-0.87984 -2.147214,-0.97769 -1.421501,0.9131 -2.348686,2.418779 -3.458237,3.630869 -0.362101,-0.0741 -0.297388,-0.37034 -0.07016,-0.57848 1.317092,-2.006009 3.172482,-3.569109 5.195864,-4.82664 2.248775,-1.59904 4.639418,-3.129604 6.391859,-5.294506 0.314764,-0.336251 0.376601,-0.929695 -0.130255,-1.116989 -0.928254,-0.509226 -2.016032,-0.680846 -3.064838,-0.653671 z"
       id="path4696"
       inkscape:connector-curvature="0" />
    <path
       style="fill:none;stroke:#000000;stroke-width:0.38185826;stroke-linecap:butt;stroke-linejoin:miter;stroke-miterlimit:4;stroke-dasharray:none;stroke-opacity:1"
       d="m 174.02557,135.39001 c 0,0 1.04024,10.57578 -7.97518,19.76456 -9.01541,9.1888 -18.72432,14.91012 -25.13913,13.34975"
       id="path4700"
       inkscape:connector-curvature="0"
       sodipodi:nodetypes="csc" />
    <path
       style="fill:none;stroke:#000000;stroke-width:0.38185826;stroke-linecap:butt;stroke-linejoin:miter;stroke-miterlimit:4;stroke-dasharray:none;stroke-opacity:1"
       d="m 152.33441,140.43949 c 0,0 -2.14456,6.75769 -6.82564,12.47901 -4.81186,5.88116 -7.97518,5.72132 -13.00301,5.2012"
       id="path4702"
       inkscape:connector-curvature="0"
       sodipodi:nodetypes="csc" />
    <path
       style="fill:none;stroke:#000000;stroke-width:0.61120254;stroke-linecap:butt;stroke-linejoin:miter;stroke-miterlimit:4;stroke-dasharray:none;stroke-opacity:1"
       d="m 120.21492,160.54481 c 0,0 2.13136,3.01635 5.10887,3.14041 2.97751,0.12406 5.21066,-0.12406 5.21066,-0.12406"
       id="path4704"
       inkscape:connector-curvature="0" />
    <path
       style="fill:none;stroke:#000000;stroke-width:0.38185826;stroke-linecap:butt;stroke-linejoin:miter;stroke-miterlimit:4;stroke-dasharray:none;stroke-opacity:1"
       d="m 71.604453,164.55367 c 7.319722,0.24812 9.304736,-0.62032 12.654438,-1.36471 3.349703,-0.74437 8.188165,-1.86095 9.925049,-1.61281"
       id="path4706"
       inkscape:connector-curvature="0" />
    <path
       style="fill:none;stroke:#000000;stroke-width:0.38185826;stroke-linecap:butt;stroke-linejoin:miter;stroke-miterlimit:4;stroke-dasharray:none;stroke-opacity:1"
       d="m 103.05956,162.36319 c 12.47395,3.69509 14.40246,0.75637 16.74746,3.15154"
       id="path4708"
       inkscape:connector-curvature="0" />
    <path
       style="fill:none;stroke:#000000;stroke-width:0.38185826;stroke-linecap:butt;stroke-linejoin:miter;stroke-miterlimit:4;stroke-dasharray:none;stroke-opacity:1"
       d="m 51.63029,164.4296 c -5.706904,-0.49625 -7.94004,-1.73688 -9.056613,-2.10908"
       id="path4710"
       inkscape:connector-curvature="0" />
    <path
       style="fill:none;stroke:#000000;stroke-width:0.47892776;stroke-linecap:butt;stroke-linejoin:miter;stroke-miterlimit:4;stroke-dasharray:none;stroke-opacity:1"
       d="m 43.073925,165.07066 c 4.059671,0.83494 3.856688,1.19277 6.089503,0.95422"
       id="path4712"
       inkscape:connector-curvature="0" />
    <path
       style="fill:none;stroke:#000000;stroke-width:0.38185826;stroke-linecap:butt;stroke-linejoin:miter;stroke-miterlimit:4;stroke-dasharray:none;stroke-opacity:1"
       d="m 124.45535,131.18068 c 0,0 -0.9925,11.786 -3.72189,18.98166 -2.72939,7.19566 -3.47378,8.56035 -3.47378,8.56035"
       id="path4716"
       inkscape:connector-curvature="0" />
    <path
       style="fill:none;stroke:#000000;stroke-width:0.38185826;stroke-linecap:butt;stroke-linejoin:miter;stroke-miterlimit:4;stroke-dasharray:none;stroke-opacity:1"
       d="m 112.54529,166.66274 c 0,0 -12.04493,13.28015 -19.736847,20.10362 -7.748258,6.87346 -16.850973,12.15278 -16.850973,12.15278 L 50.761849,171.25306"
       id="path4718"
       inkscape:connector-curvature="0"
       sodipodi:nodetypes="cscc" />
    <path
       style="fill:#000000;fill-opacity:1;stroke:#000000;stroke-width:0.21215293px;stroke-linecap:butt;stroke-linejoin:miter;stroke-opacity:1"
       d="m 48.81659,124.64825 c 0,0 -4.735307,-3.29992 -10.097208,-2.0875 -5.361903,1.21246 -5.38922,1.0432 -5.38922,1.0432 0,0 5.930623,-0.31972 9.713539,0.73718 0,0 2.094353,0.58936 3.1534,0.92355 2.193169,0.64651 2.01322,0.70985 2.619493,-0.61645 z"
       id="path4550"
       inkscape:connector-curvature="0"
       sodipodi:nodetypes="cccccc" />
    <path
       style="fill:#000000;fill-opacity:1;stroke:#000000;stroke-width:0.23113188px;stroke-linecap:butt;stroke-linejoin:miter;stroke-opacity:1"
       d="m 54.733963,124.17681 c 0,0 5.209001,-3.52219 11.031413,-2.1192 5.822403,1.403 5.854753,1.21903 5.854753,1.21903 0,0 -6.455624,-0.43921 -10.592752,0.65413 0,0 -2.290517,0.60992 -3.449312,0.95774 -2.399044,0.67065 -2.203997,0.74237 -2.844099,-0.71169 z"
       id="path4550-0"
       inkscape:connector-curvature="0"
       sodipodi:nodetypes="cccccc" />
    <path
       style="fill:#f6f4ff;fill-opacity:1;stroke:#000000;stroke-width:0.30116278px;stroke-linecap:butt;stroke-linejoin:miter;stroke-opacity:1"
       d="m 73.058947,134.32379 -18.412663,0.53877 c 0,0 -1.552449,-1.08039 -0.841318,-4.29759 1.086134,-1.98532 2.167087,-2.38863 2.167087,-2.38863 l 17.114566,-1.25401 c 0,0 1.744294,6.07134 -0.02767,7.40146 z"
       id="path4622"
       inkscape:connector-curvature="0"
       sodipodi:nodetypes="cccccc" />
    <path
       style="fill:none;stroke:#000000;stroke-width:0.40099999;stroke-linecap:butt;stroke-linejoin:miter;stroke-miterlimit:4;stroke-dasharray:none;stroke-opacity:1"
       d="m 55.972053,128.17634 -2.155884,0.15934 c 0,0 -0.712044,-0.67155 -0.47088,-1.53079 0.241163,-0.85924 0.85951,-1.56973 0.85951,-1.56973"
       id="path4639"
       inkscape:connector-curvature="0" />
    <path
       style="fill:none;stroke:#000000;stroke-width:0.30116278px;stroke-linecap:butt;stroke-linejoin:miter;stroke-opacity:1"
       d="m 73.086619,126.92233 1.612347,-0.14901"
       id="path4641"
       inkscape:connector-curvature="0" />
    <path
       style="fill:none;stroke:#000000;stroke-width:0.30116278px;stroke-linecap:butt;stroke-linejoin:miter;stroke-opacity:1"
       d="m 73.058947,134.32379 1.144139,-0.0335"
       id="path4643"
       inkscape:connector-curvature="0" />
    <path
       style="fill:#030303;fill-opacity:1;stroke:#000000;stroke-width:0.30116278px;stroke-linecap:butt;stroke-linejoin:miter;stroke-opacity:1"
       d="m 54.4663,129.62153 2.734386,-0.29305 c 0,0 0.522934,0.84833 0.694658,2.32892 0.118166,1.01878 -0.0406,3.05798 -0.66965,3.07639 -1.543259,0.0452 -2.579409,0.12877 -2.579409,0.12877 0,0 -2.066441,-2.36293 -0.17999,-5.24098 z"
       id="path4645"
       inkscape:connector-curvature="0"
       sodipodi:nodetypes="ccssccc" />
    <path
       style="fill:#f6f4ff;fill-opacity:1;stroke:#000000;stroke-width:0.07398645;stroke-linecap:butt;stroke-linejoin:miter;stroke-miterlimit:4;stroke-dasharray:none;stroke-opacity:1"
       d="m 54.77378,130.11856 -0.506467,0.89363 0.905453,2e-4 0.132399,-0.93595 z"
       id="path4647"
       inkscape:connector-curvature="0" />
    <path
       style="fill:#ffffff;fill-opacity:1;stroke:#000000;stroke-width:0.07398645;stroke-linecap:butt;stroke-linejoin:miter;stroke-miterlimit:4;stroke-dasharray:none;stroke-opacity:1"
       d="m 55.042611,131.54715 -0.886366,0.008 0.193651,0.89065 0.611171,-0.0449 z"
       id="path4649"
       inkscape:connector-curvature="0"
       sodipodi:nodetypes="ccccc" />
    <path
       style="fill:#f6f4ff;fill-opacity:1;stroke:#000000;stroke-width:0.28417945px;stroke-linecap:butt;stroke-linejoin:miter;stroke-opacity:1"
       d="m 50.741212,134.56309 -17.378227,0.35063 c 0,0 -1.455587,-1.03271 -0.757026,-4.06227 1.041848,-1.86398 2.065256,-2.23527 2.065256,-2.23527 l 16.159511,-1.03664 c 0,0 1.593851,5.74367 -0.08951,6.98355 z"
       id="path4622-3"
       inkscape:connector-curvature="0"
       sodipodi:nodetypes="cccccc" />
    <path
       style="fill:none;stroke:#000000;stroke-width:0.384;stroke-linecap:butt;stroke-linejoin:miter;stroke-miterlimit:4;stroke-dasharray:none;stroke-opacity:1"
       d="m 34.671215,128.61618 -2.035589,0.13187 c 0,0 -0.66611,-0.63975 -0.431195,-1.44844 0.234916,-0.80867 0.824454,-1.47378 0.824454,-1.47378"
       id="path4639-2"
       inkscape:connector-curvature="0" />
    <path
       style="fill:none;stroke:#000000;stroke-width:0.28417945px;stroke-linecap:butt;stroke-linejoin:miter;stroke-opacity:1"
       d="m 50.830726,127.57954 1.522635,-0.12678"
       id="path4641-6"
       inkscape:connector-curvature="0" />
    <path
       style="fill:none;stroke:#000000;stroke-width:0.28417945px;stroke-linecap:butt;stroke-linejoin:miter;stroke-opacity:1"
       d="m 50.741212,134.56309 1.07986,-0.0218"
       id="path4643-2"
       inkscape:connector-curvature="0" />
    <path
       style="fill:#030303;fill-opacity:1;stroke:#000000;stroke-width:0.28417945px;stroke-linecap:butt;stroke-linejoin:miter;stroke-opacity:1"
       d="m 33.238054,129.96692 2.582591,-0.25309 c 0,0 0.486157,0.80493 0.635508,2.20344 0.10277,0.9623 -0.0645,2.88507 -0.658214,2.89705 -1.456558,0.0294 -2.434953,0.0994 -2.434953,0.0994 0,0 -1.929587,-2.24728 -0.124937,-4.94676 z"
       id="path4645-2"
       inkscape:connector-curvature="0"
       sodipodi:nodetypes="ccssccc" />
    <path
       style="fill:#f6f4ff;fill-opacity:1;stroke:#000000;stroke-width:0.06981417;stroke-linecap:butt;stroke-linejoin:miter;stroke-miterlimit:4;stroke-dasharray:none;stroke-opacity:1"
       d="m 33.523925,130.43853 -0.485541,0.83887 0.854355,0.008 0.132945,-0.882 z"
       id="path4647-6"
       inkscape:connector-curvature="0" />
    <path
       style="fill:#ffffff;fill-opacity:1;stroke:#000000;stroke-width:0.06981417;stroke-linecap:butt;stroke-linejoin:miter;stroke-miterlimit:4;stroke-dasharray:none;stroke-opacity:1"
       d="m 33.765347,131.7888 -0.836419,4.1e-4 0.175093,0.84205 0.577067,-0.0371 z"
       id="path4649-9"
       inkscape:connector-curvature="0"
       sodipodi:nodetypes="ccccc" />
    <g
       id="g4759"
       transform="matrix(0.9961794,0,0,1.3003708,0.15549008,-42.289767)">
      <path
         sodipodi:nodetypes="cscscc"
         inkscape:connector-curvature="0"
         id="path4744"
         d="m 35.546847,141.24868 c 0,0 25.350513,-1.12253 30.02773,0.37418 4.677217,1.49671 4.490129,1.6838 4.490129,1.6838 0,0 -0.18709,0.8419 -1.683798,1.49671 -1.496711,0.65481 -31.992162,0.46772 -31.992162,0.46772 0,0 1.122532,-2.24506 -0.841899,-4.02241 z"
         style="fill:#0d0d0d;fill-opacity:1;stroke:#000000;stroke-width:0.26458332px;stroke-linecap:butt;stroke-linejoin:miter;stroke-opacity:1" />
      <path
         sodipodi:nodetypes="cccccc"
         inkscape:connector-curvature="0"
         id="path4746"
         d="m 37.225046,141.17807 0.01224,1.07253 c 0,0 16.605746,-0.22321 20.177596,-0.21187 3.571849,0.0114 4.565913,-0.98275 4.565913,-0.98275 0,0 -21.379568,-0.28331 -24.755745,0.12209 z"
         style="fill:#fff9f9;fill-opacity:1;stroke:#000000;stroke-width:0.15094431;stroke-linecap:butt;stroke-linejoin:miter;stroke-miterlimit:4;stroke-dasharray:none;stroke-opacity:1" />
      <path
         inkscape:connector-curvature="0"
         id="path4750"
         d="m 57.480728,144.66615 c 0,0 0.760678,-1.28985 3.73724,-1.38907 2.976562,-0.0992 6.482292,-0.0331 6.680729,0 0.198438,0.0331 2.083594,0.16537 1.686719,0.62839 -0.396875,0.46302 -1.455211,0.85991 -1.455211,0.85991 z"
         style="fill:#f08c8c;fill-opacity:1;stroke:#000000;stroke-width:0.16500001;stroke-linecap:butt;stroke-linejoin:miter;stroke-miterlimit:4;stroke-dasharray:none;stroke-opacity:1" />
      <path
         sodipodi:nodetypes="ccscscc"
         inkscape:connector-curvature="0"
         id="path4748"
         d="m 40.15052,145.29453 v -0.79375 c 0,0 23.25026,-0.0992 24.771615,-0.0992 1.521354,0 3.208072,0.3638 3.208072,0.3638 0,0 -2.455313,0.34025 -6.25395,0.43464 -6.856032,0.17036 -17.490688,0.1371 -21.725737,0.0945 z"
         style="fill:#fff9f9;fill-opacity:1;stroke:#000000;stroke-width:0.16500001;stroke-linecap:butt;stroke-linejoin:miter;stroke-miterlimit:4;stroke-dasharray:none;stroke-opacity:1" />
      <path
         sodipodi:nodetypes="csc"
         inkscape:connector-curvature="0"
         id="path4752"
         d="m 70.346092,141.425 c 0,0 -0.397409,0.0591 -0.281386,1.88166 0.116022,1.82251 0.479824,2.48396 0.479824,2.48396"
         style="fill:none;stroke:#000000;stroke-width:0.26458332px;stroke-linecap:butt;stroke-linejoin:miter;stroke-opacity:1" />
    </g>
  </g>
</svg>
