<?xml version="1.0" encoding="UTF-8" standalone="no"?>
<!-- Created with Inkscape (http://www.inkscape.org/) -->

<svg
   xmlns:dc="http://purl.org/dc/elements/1.1/"
   xmlns:cc="http://creativecommons.org/ns#"
   xmlns:rdf="http://www.w3.org/1999/02/22-rdf-syntax-ns#"
   xmlns:svg="http://www.w3.org/2000/svg"
   xmlns="http://www.w3.org/2000/svg"
   xmlns:sodipodi="http://sodipodi.sourceforge.net/DTD/sodipodi-0.dtd"
   xmlns:inkscape="http://www.inkscape.org/namespaces/inkscape"
   width="157.42291mm"
   height="114.36861mm"
   viewBox="0 0 157.42291 114.36861"
   version="1.1"
   id="svg8"
   inkscape:version="0.92.1 r15371"
   sodipodi:docname="happypip.svg">
  <defs
     id="defs2" />
  <sodipodi:namedview
     id="base"
     pagecolor="#ffffff"
     bordercolor="#666666"
     borderopacity="1.0"
     inkscape:pageopacity="0.0"
     inkscape:pageshadow="2"
     inkscape:zoom="2.8284271"
     inkscape:cx="-1.9384924"
     inkscape:cy="251.31293"
     inkscape:document-units="mm"
     inkscape:current-layer="layer1"
     showgrid="false"
     inkscape:window-width="1920"
     inkscape:window-height="1001"
     inkscape:window-x="-9"
     inkscape:window-y="-9"
     inkscape:window-maximized="1" />
  <metadata
     id="metadata5">
    <rdf:RDF>
      <cc:Work
         rdf:about="">
        <dc:format>image/svg+xml</dc:format>
        <dc:type
           rdf:resource="http://purl.org/dc/dcmitype/StillImage" />
        <dc:title />
      </cc:Work>
    </rdf:RDF>
  </metadata>
  <g
     inkscape:label="Layer 1"
     inkscape:groupmode="layer"
     id="layer1"
     transform="translate(-30.141042,-88.500827)">
    <path
       style="fill:#620000;fill-opacity:1;stroke:#000000;stroke-width:0.58826816;stroke-linecap:butt;stroke-linejoin:miter;stroke-miterlimit:4;stroke-dasharray:none;stroke-opacity:1"
       d="m 40.28396,165.20337 c 0,0 -2.451869,12.38194 4.535955,16.79531 6.987831,4.41336 19.001987,8.21376 19.001987,8.21376 0,0 -14.098249,-23.17017 -23.537942,-25.00907 z"
       id="path4633"
       inkscape:connector-curvature="0" />
    <path
       style="fill:#620000;fill-opacity:1;stroke:#000000;stroke-width:0.61120254;stroke-linecap:butt;stroke-linejoin:miter;stroke-miterlimit:4;stroke-dasharray:none;stroke-opacity:1"
       d="m 115.31118,166.4293 17.0405,14.34344 c 0,0 -8.21377,0 -11.76898,2.08409 -3.55521,2.08409 -10.05267,6.98782 -14.22084,6.98782 -4.16819,0 -10.910833,1.34854 -13.730487,-0.12259 -2.819645,-1.47111 22.679807,-23.29276 22.679807,-23.29276 z"
       id="path4635"
       inkscape:connector-curvature="0" />
    <path
       style="fill:#848484;fill-opacity:1;stroke:#000000;stroke-width:0.56533366;stroke-linecap:butt;stroke-linejoin:miter;stroke-miterlimit:4;stroke-dasharray:none;stroke-opacity:1"
       d="m 105.63289,105.06745 c 3.81422,0.69349 23.05866,-0.52013 23.05866,-0.52013 0,0 -0.34675,24.09891 -0.86687,28.25986 -4.18511,35.60556 -22.16267,49.845 -52.185391,69.6961 0,0 -25.485887,-26.69949 -35.888289,-41.26286 -10.402395,-14.56336 -7.281678,-52.53213 -7.281678,-52.53213 13.661556,-2.5929 21.991531,-3.56476 31.575629,-10.807779 3.314114,-2.531726 11.096389,-6.964819 15.235183,-8.263284 2.903634,-0.858315 6.761557,-1.386991 8.668669,0 1.907105,1.386981 -8.321926,7.801794 -8.321926,7.801794 7.89278,4.602679 17.154319,6.058279 26.006013,7.628429 z"
       id="path3693"
       inkscape:connector-curvature="0"
       sodipodi:nodetypes="ccccscccscc" />
    <path
       style="fill:none;stroke:#000000;stroke-width:0.56533366;stroke-linecap:butt;stroke-linejoin:miter;stroke-miterlimit:4;stroke-dasharray:none;stroke-opacity:1"
       d="m 79.626877,97.439021 -1.786965,1.51431 -1.897217,2.473279"
       id="path4500"
       inkscape:connector-curvature="0"
       sodipodi:nodetypes="ccc" />
    <path
       style="fill:#12006c;fill-opacity:1;stroke:#000000;stroke-width:0.61120254;stroke-linecap:butt;stroke-linejoin:miter;stroke-miterlimit:4;stroke-dasharray:none;stroke-opacity:1"
       d="m 31.429081,118.93732 c 0,0 14.04324,-0.86687 18.377579,-0.26006 4.334331,0.60681 7.888484,0.60681 9.882282,0.52013 1.99379,-0.0868 26.612813,-1.56037 27.653054,-1.73374 1.040235,-0.17338 7.021621,-0.78019 9.448852,-0.6935 2.427226,0.0867 11.702702,0.60681 14.129932,0.6935 2.42722,0.0867 9.8739,0.16444 12.56957,-2.25385 2.73915,-2.45731 5.28788,-2.25386 5.28788,-2.25386 0,0 1.90711,1.3003 1.47368,4.85445 -0.43343,3.55415 -0.17337,5.02783 -0.95355,5.80801 -0.78018,0.78018 -4.16096,2.86066 -5.72132,3.20741 -1.56037,0.34674 -8.14856,0.86686 -12.30952,1.64705 -4.16095,0.78018 -8.14854,2.08047 -11.789387,4.85445 -3.640843,2.77397 -4.247649,2.94735 -6.934942,4.94114 -2.687283,1.99379 -10.835831,3.12072 -14.563362,3.38078 -3.727525,0.26006 -10.936366,0.95355 -12.829629,0.95355 -2.947347,0 -6.588185,-1.38698 -10.575774,-1.12693 -3.953668,0.25785 -8.928726,1.56037 -12.049451,1.30031 -3.120718,-0.26006 -8.928733,-1.30031 -9.882281,-2.42723 -0.953556,-1.12693 -2.34054,-20.45805 -1.213613,-21.41161 z"
       id="path4502"
       inkscape:connector-curvature="0"
       sodipodi:nodetypes="csssssscsscssssssssc" />
    <path
       style="fill:#12006c;fill-opacity:1;stroke:#000000;stroke-width:0.61120254;stroke-linecap:butt;stroke-linejoin:miter;stroke-miterlimit:4;stroke-dasharray:none;stroke-opacity:1"
       d="m 128.77823,112.95594 c 0,0 6.50151,-5.37458 7.54175,-4.68108 1.04024,0.69349 -4.68108,7.10831 -4.68108,7.10831 0,0 9.01542,1.9071 9.01542,3.2074 0,1.30031 -10.57578,0.43343 -10.57578,0.43343 z"
       id="path4523"
       inkscape:connector-curvature="0"
       sodipodi:nodetypes="cccscc" />
    <path
       style="fill:#ff0000;fill-opacity:1;stroke:#000000;stroke-width:0.54488868;stroke-linecap:butt;stroke-linejoin:miter;stroke-miterlimit:4;stroke-dasharray:none;stroke-opacity:1"
       d="m 55.171693,164.16376 c 0,0 -7.284093,3.85939 -5.39404,6.55237 1.890045,2.693 -0.113731,0.47065 3.268636,-2.22437 3.382367,-2.69503 4.483677,-2.81327 4.483677,-2.81327 z"
       id="path4527"
       inkscape:connector-curvature="0"
       sodipodi:nodetypes="csccc" />
    <path
       style="fill:#ff0000;fill-opacity:1;stroke:#000000;stroke-width:0.61120254;stroke-linecap:butt;stroke-linejoin:miter;stroke-miterlimit:4;stroke-dasharray:none;stroke-opacity:1"
       d="m 63.011647,163.77059 c 0,0 2.738284,4.68764 2.952857,8.21088 0.214574,3.52321 2.559835,-3.00542 1.421605,-5.58512 -1.138222,-2.57971 -4.374462,-2.62576 -4.374462,-2.62576"
       id="path4529"
       inkscape:connector-curvature="0" />
    <path
       style="fill:#ff0000;fill-opacity:1;stroke:#000000;stroke-width:0.47359601;stroke-linecap:butt;stroke-linejoin:miter;stroke-miterlimit:4;stroke-dasharray:none;stroke-opacity:1"
       d="m 55.171693,164.16376 c 0,0 1.540229,-2.84921 6.225708,-1.46625 4.685479,1.38296 4.817306,1.87094 4.817306,1.87094 0,0 -10.712287,4.12584 -11.043014,-0.40469 z"
       id="path4525"
       inkscape:connector-curvature="0" />
    <path
       style="fill:#ff0000;fill-opacity:1;stroke:#000000;stroke-width:0.61120254;stroke-linecap:butt;stroke-linejoin:miter;stroke-miterlimit:4;stroke-dasharray:none;stroke-opacity:1"
       d="m 49.556052,167.86819 c 0,0 -8.906669,0.63316 -9.495414,-2.73523 -0.588745,-3.3684 0.903522,-5.09269 2.756201,-5.18896 1.85268,-0.0962 4.231156,2.43281 7.305779,2.43529 3.07463,0.003 6.750357,0.17653 6.750357,0.17653 z"
       id="path4629"
       inkscape:connector-curvature="0" />
    <path
       style="opacity:1;fill:#ff0000;fill-opacity:1;stroke:#000000;stroke-width:0.61120254;stroke-linecap:butt;stroke-linejoin:miter;stroke-miterlimit:4;stroke-dasharray:none;stroke-opacity:1"
       d="m 120.21492,160.54482 c -4.78115,-2.45188 -5.51671,-4.16819 -9.4397,-4.65855 -3.923,-0.49038 -19.247181,5.14891 -21.453871,4.04558 -2.206683,-1.10334 -10.297848,1.96149 -13.362685,1.71631 -3.064838,-0.24519 -9.743957,2.92029 -9.743957,2.92029 0,0 4.840219,6.02904 11.950639,4.68051 7.11042,-1.34853 6.497452,-2.94225 11.891569,-4.65856 5.394112,-1.7163 17.163095,0.61297 22.189425,1.8389 5.02633,1.22593 10.04279,9.3672 19.00199,14.09825 1.68642,0.89054 14.09826,-0.85815 17.53088,-0.85815 3.43261,0 13.73046,0.49037 19.61495,-5.14893 5.88448,-5.63929 14.83381,-20.10534 16.05974,-25.49944 1.22594,-5.39412 5.02634,-19.00199 0.98075,-24.15092 -4.04558,-5.14893 -10.54304,11.2786 -11.4012,10.66563 -0.85815,-0.61297 -0.49037,-4.29077 -3.92298,-4.53596 -3.43262,-0.24519 -11.15601,1.34853 -14.34344,5.51671 -3.18743,4.16818 -3.43262,3.923 -3.43262,3.923 0,0 -5.27151,-3.80041 -7.84598,-3.55521 -2.57446,0.24519 -2.20669,0.61296 -4.16818,4.53595 -1.9615,3.92299 -10.78823,9.07192 -15.56937,8.33636 -1.96149,5.76189 -4.53596,10.78823 -4.53596,10.78823 z"
       id="path4631"
       inkscape:connector-curvature="0"
       sodipodi:nodetypes="cssscsssssssscsscsscc" />
    <path
       style="fill:none;stroke:#000000;stroke-width:0.49653041;stroke-linecap:butt;stroke-linejoin:miter;stroke-miterlimit:4;stroke-dasharray:none;stroke-opacity:1"
       d="m 32.070199,112.97855 c 0,0 11.523785,-2.0841 16.059739,-0.49039 4.535962,1.59373 4.045583,1.47113 4.045583,1.47113 0,0 18.511622,-4.16818 25.131671,-3.31002 6.620047,0.85815 33.100248,1.22593 33.100248,1.22593 l -0.0628,5.31847 6.10981,-0.14199 0.45046,-4.93129 11.64639,-1.83891"
       id="path4640"
       inkscape:connector-curvature="0"
       sodipodi:nodetypes="cscsccccc" />
    <path
       style="opacity:0.53699999;fill:#000000;fill-opacity:1;stroke-width:1.00314295;stroke-miterlimit:4;stroke-dasharray:none"
       d="m 84.444587,89.017043 c -3.840212,0.07687 -7.452242,1.586735 -10.792185,3.365731 -3.894864,1.994066 -7.620715,4.306046 -11.144942,6.898247 -4.564337,3.213459 -9.803377,5.359729 -15.207719,6.671509 -4.804226,1.1915 -9.691446,1.98731 -14.543873,2.95745 -0.27676,0.67423 -0.112769,1.52677 -0.221696,2.26488 0.08898,0.50465 -0.456493,1.81421 0.483888,1.44549 4.497044,-0.59916 9.072272,-1.25944 13.597817,-0.67928 1.927445,0.37209 3.755894,1.18854 5.622298,1.78407 7.415858,-1.49428 14.877358,-3.04389 22.441793,-3.37516 2.900353,0.009 5.78753,0.49219 8.693682,0.56012 9.072733,0.44739 18.15634,0.61361 27.23723,0.80733 -0.092,1.82179 -0.28404,3.66775 -0.26626,5.47624 2.02527,0.003 4.08595,0.0324 6.10981,-0.14199 0.26902,-0.74818 0.11819,-1.6471 0.21171,-2.44623 0.0324,-0.89398 0.0482,-1.78932 0.13308,-2.68115 3.79872,-0.56725 7.59582,-1.15989 11.37749,-1.82837 0.29624,-0.63554 0.12441,-1.46428 0.22986,-2.16477 0.01,-1.02424 0.14011,-2.07459 0.0621,-3.08208 -3.24539,0.0277 -6.5069,0.33667 -9.76069,0.41368 -4.27228,0.10868 -8.57007,0.3584 -12.83698,0.0585 -8.207024,-1.43354 -16.591974,-2.77942 -24.14335,-6.487099 -0.718478,-0.27661 -1.385846,-0.87984 -2.147214,-0.97769 -1.421501,0.9131 -2.348686,2.418779 -3.458237,3.630869 -0.362101,-0.0741 -0.297388,-0.37034 -0.07016,-0.57848 1.317092,-2.006009 3.172482,-3.569109 5.195864,-4.82664 2.248775,-1.59904 4.639418,-3.129604 6.391859,-5.294506 0.314764,-0.336251 0.376601,-0.929695 -0.130255,-1.116989 -0.928254,-0.509226 -2.016032,-0.680846 -3.064838,-0.653671 z"
       id="path4696"
       inkscape:connector-curvature="0" />
    <path
       style="fill:none;stroke:#000000;stroke-width:0.38185826;stroke-linecap:butt;stroke-linejoin:miter;stroke-miterlimit:4;stroke-dasharray:none;stroke-opacity:1"
       d="m 174.02557,135.39001 c 0,0 1.04024,10.57578 -7.97518,19.76456 -9.01541,9.1888 -18.72432,14.91012 -25.13913,13.34975"
       id="path4700"
       inkscape:connector-curvature="0"
       sodipodi:nodetypes="csc" />
    <path
       style="fill:none;stroke:#000000;stroke-width:0.38185826;stroke-linecap:butt;stroke-linejoin:miter;stroke-miterlimit:4;stroke-dasharray:none;stroke-opacity:1"
       d="m 152.33441,140.43949 c 0,0 -2.14456,6.75769 -6.82564,12.47901 -4.81186,5.88116 -7.97518,5.72132 -13.00301,5.2012"
       id="path4702"
       inkscape:connector-curvature="0"
       sodipodi:nodetypes="csc" />
    <path
       style="fill:none;stroke:#000000;stroke-width:0.61120254;stroke-linecap:butt;stroke-linejoin:miter;stroke-miterlimit:4;stroke-dasharray:none;stroke-opacity:1"
       d="m 120.21492,160.54481 c 0,0 2.13136,3.01635 5.10887,3.14041 2.97751,0.12406 5.21066,-0.12406 5.21066,-0.12406"
       id="path4704"
       inkscape:connector-curvature="0" />
    <path
       style="fill:none;stroke:#000000;stroke-width:0.38185826;stroke-linecap:butt;stroke-linejoin:miter;stroke-miterlimit:4;stroke-dasharray:none;stroke-opacity:1"
       d="m 71.604453,164.55367 c 7.319722,0.24812 9.304736,-0.62032 12.654438,-1.36471 3.349703,-0.74437 8.188165,-1.86095 9.925049,-1.61281"
       id="path4706"
       inkscape:connector-curvature="0" />
    <path
       style="fill:none;stroke:#000000;stroke-width:0.38185826;stroke-linecap:butt;stroke-linejoin:miter;stroke-miterlimit:4;stroke-dasharray:none;stroke-opacity:1"
       d="m 103.05956,162.36319 c 12.47395,3.69509 14.40246,0.75637 16.74746,3.15154"
       id="path4708"
       inkscape:connector-curvature="0" />
    <path
       style="fill:none;stroke:#000000;stroke-width:0.38185826;stroke-linecap:butt;stroke-linejoin:miter;stroke-miterlimit:4;stroke-dasharray:none;stroke-opacity:1"
       d="m 51.63029,164.4296 c -5.706904,-0.49625 -7.94004,-1.73688 -9.056613,-2.10908"
       id="path4710"
       inkscape:connector-curvature="0" />
    <path
       style="fill:none;stroke:#000000;stroke-width:0.47892776;stroke-linecap:butt;stroke-linejoin:miter;stroke-miterlimit:4;stroke-dasharray:none;stroke-opacity:1"
       d="m 43.073925,165.07066 c 4.059671,0.83494 3.856688,1.19277 6.089503,0.95422"
       id="path4712"
       inkscape:connector-curvature="0" />
    <path
       style="fill:none;stroke:#000000;stroke-width:0.38185826;stroke-linecap:butt;stroke-linejoin:miter;stroke-miterlimit:4;stroke-dasharray:none;stroke-opacity:1"
       d="m 124.45535,131.18068 c 0,0 -0.9925,11.786 -3.72189,18.98166 -2.72939,7.19566 -3.47378,8.56035 -3.47378,8.56035"
       id="path4716"
       inkscape:connector-curvature="0" />
    <path
       style="fill:none;stroke:#000000;stroke-width:0.38185826;stroke-linecap:butt;stroke-linejoin:miter;stroke-miterlimit:4;stroke-dasharray:none;stroke-opacity:1"
       d="m 112.54529,166.66274 c 0,0 -12.04493,13.28015 -19.736847,20.10362 -7.748258,6.87346 -16.850973,12.15278 -16.850973,12.15278 L 50.761849,171.25306"
       id="path4718"
       inkscape:connector-curvature="0"
       sodipodi:nodetypes="cscc" />
    <path
       style="fill:#ffffff;fill-opacity:1;stroke:#000000;stroke-width:0.61120254;stroke-linecap:butt;stroke-linejoin:miter;stroke-miterlimit:4;stroke-dasharray:none;stroke-opacity:1"
       d="m 53.769042,139.37683 14.740014,0.24958 c 0,0 3.690125,-11.24518 1.477101,-14.83619 -1.774365,-2.87921 -3.8894,-4.27193 -8.624673,-3.97619 -4.73528,0.29574 -6.305861,1.53473 -7.857748,5.49316 -1.551894,3.95842 0.265306,13.06964 0.265306,13.06964 z"
       id="path4504"
       inkscape:connector-curvature="0"
       sodipodi:nodetypes="ccsssc" />
    <path
       style="fill:#ffffff;fill-opacity:1;stroke:#000000;stroke-width:0.57844156;stroke-linecap:butt;stroke-linejoin:miter;stroke-miterlimit:4;stroke-dasharray:none;stroke-opacity:1"
       d="m 34.606201,139.48032 13.681374,-0.59721 c 0,0 2.765692,-11.0535 0.950268,-14.6262 -1.14632,-2.25593 -4.200658,-3.59697 -8.665368,-3.07374 -4.378387,0.51313 -5.758049,1.83536 -6.968052,5.73332 -1.210011,3.89796 1.001778,12.56383 1.001778,12.56383 z"
       id="path4504-4"
       inkscape:connector-curvature="0"
       sodipodi:nodetypes="ccsssc" />
    <path
       style="fill:#000000;fill-opacity:1;stroke:#000000;stroke-width:0.51946485;stroke-linecap:butt;stroke-linejoin:miter;stroke-miterlimit:4;stroke-dasharray:none;stroke-opacity:1"
       d="m 45.828585,139.23205 c 0.61408,-0.52635 2.588595,-5.40863 2.280872,-8.33396 -0.300243,-2.85424 -3.158132,-6.14081 -7.719876,-5.0881 -4.174512,0.96335 -3.596761,5.96536 -3.596761,5.96536 l 0.988383,7.70497 z"
       id="path4524"
       inkscape:connector-curvature="0"
       sodipodi:nodetypes="cssccc" />
    <path
       style="fill:#000000;fill-opacity:1;stroke:#000000;stroke-width:0.51946491;stroke-linecap:butt;stroke-linejoin:miter;stroke-miterlimit:4;stroke-dasharray:none;stroke-opacity:1"
       d="m 66.049768,139.12857 c 0.614081,-0.52637 2.588588,-5.40864 2.280872,-8.33397 -0.300243,-2.85424 -3.158132,-6.14081 -7.719882,-5.08809 -4.174506,0.96333 -3.596755,5.96535 -3.596755,5.96535 l 0.988375,7.70497 z"
       id="path4524-3"
       inkscape:connector-curvature="0"
       sodipodi:nodetypes="cssccc" />
    <path
       style="fill:#ffffff;fill-opacity:1;stroke:#000000;stroke-width:0.06068068px;stroke-linecap:butt;stroke-linejoin:miter;stroke-opacity:1"
       d="m 60.278375,126.79188 c 0,0 -0.87334,-0.506 -1.581379,0.9189 -0.470075,0.94601 -0.658391,2.64228 0.160861,3.24212 3.794978,2.19697 2.430715,-3.26594 1.420518,-4.16102 z"
       id="path4543"
       inkscape:connector-curvature="0"
       sodipodi:nodetypes="cscc" />
    <path
       style="fill:#000000;fill-opacity:1;stroke:#000000;stroke-width:0.26458332px;stroke-linecap:butt;stroke-linejoin:miter;stroke-opacity:1"
       d="m 48.327082,113.69868 c 0,0 -7.101921,-1.17277 -12.486935,3.07038 -5.385002,4.24316 -5.506615,4.06727 -5.506615,4.06727 0,0 6.504433,-3.54349 11.330189,-4.38443 0,0 2.673969,-0.46083 4.045526,-0.65313 2.815885,-0.44954 2.647313,-0.28169 2.617835,-2.10009 z"
       id="path4550"
       inkscape:connector-curvature="0"
       sodipodi:nodetypes="cccccc" />
    <path
       style="fill:#000000;fill-opacity:1;stroke:#000000;stroke-width:0.26458332px;stroke-linecap:butt;stroke-linejoin:miter;stroke-opacity:1"
       d="m 56.254746,113.80502 c 0,0 7.021321,-1.58546 12.644916,2.336 5.623582,3.92147 5.734714,3.73879 5.734714,3.73879 0,0 -6.700244,-3.15764 -11.566873,-3.71535 0,0 -2.696316,-0.30389 -4.076763,-0.41577 -2.837329,-0.28435 -2.659243,-0.12662 -2.735995,-1.94366 z"
       id="path4550-0"
       inkscape:connector-curvature="0"
       sodipodi:nodetypes="cccccc" />
    <path
       style="fill:#ffffff;fill-opacity:1;stroke:#000000;stroke-width:0.03458821px;stroke-linecap:butt;stroke-linejoin:miter;stroke-opacity:1"
       d="m 59.134382,131.88889 c 0,0 -0.420024,-0.34184 -0.760549,0.62077 -0.226078,0.63908 -0.316647,1.78502 0.07737,2.19024 1.825158,1.48419 1.169029,-2.20633 0.683184,-2.81101 z"
       id="path4543-6"
       inkscape:connector-curvature="0"
       sodipodi:nodetypes="cscc" />
    <path
       style="fill:#ffffff;fill-opacity:1;stroke:#000000;stroke-width:0.06068068px;stroke-linecap:butt;stroke-linejoin:miter;stroke-opacity:1"
       d="m 39.741375,127.14622 c 0,0 -0.87334,-0.506 -1.581379,0.9189 -0.470075,0.94601 -0.658391,2.64228 0.160861,3.24212 3.794978,2.19697 2.430715,-3.26594 1.420518,-4.16102 z"
       id="path4543-60"
       inkscape:connector-curvature="0"
       sodipodi:nodetypes="cscc" />
    <path
       style="fill:#ffffff;fill-opacity:1;stroke:#000000;stroke-width:0.03458821px;stroke-linecap:butt;stroke-linejoin:miter;stroke-opacity:1"
       d="m 38.880612,132.5245 c 0,0 -0.420024,-0.34184 -0.760549,0.62077 -0.226078,0.63908 -0.316647,1.78502 0.07737,2.19024 1.825158,1.48419 1.169029,-2.20633 0.683184,-2.81101 z"
       id="path4543-6-3"
       inkscape:connector-curvature="0"
       sodipodi:nodetypes="cscc" />
    <path
       style="fill:#050000;fill-opacity:1;stroke:#000000;stroke-width:0.61488587;stroke-linecap:butt;stroke-linejoin:miter;stroke-miterlimit:4;stroke-dasharray:none;stroke-opacity:1"
       d="m 32.048472,143.51363 c 0.862027,-0.005 16.68102,2.46404 27.452741,1.797 10.771723,-0.66704 12.780428,-1.13128 12.780428,-1.13128 0,0 -2.68767,7.10212 -9.997869,10.01015 -7.310197,2.90803 -27.001141,1.66802 -27.001141,1.66802 0,0 -0.462341,-5.27419 -3.234159,-12.34389 z"
       id="path4612"
       inkscape:connector-curvature="0" />
    <path
       style="fill:#ffffff;fill-opacity:1;stroke:#000000;stroke-width:0.26458332px;stroke-linecap:butt;stroke-linejoin:miter;stroke-opacity:1"
       d="m 34.179941,143.81013 c 0.300513,0.8453 0.77746,1.56171 0.757078,2.45637 0,0 22.829281,1.38096 25.423602,0.86616 2.594325,-0.5148 6.723724,-1.23377 6.723724,-1.23377 l -0.03255,-1.00499 c 0,0 -4.465552,0.7769 -10.104824,0.7899 -4.90858,0.0113 -12.922147,-0.56032 -17.430469,-1.17212 -3.609602,-0.48985 -4.680787,-0.0851 -5.336557,-0.70155 z"
       id="path4614"
       inkscape:connector-curvature="0"
       sodipodi:nodetypes="ccsccsscc" />
    <path
       style="fill:#ff5858;fill-opacity:1;stroke:#000000;stroke-width:0.26458332px;stroke-linecap:butt;stroke-linejoin:miter;stroke-opacity:1"
       d="m 56.706708,154.37258 c 0,0 1.482217,-3.10787 3.490381,-4.01632 2.008164,-0.90846 3.203498,-0.90846 4.111953,-0.95627 0.908454,-0.0478 3.777261,0.76501 3.777261,0.76501 0,0 -4.041823,3.44219 -5.104877,3.82489 -1.063056,0.38269 -6.274718,0.38269 -6.274718,0.38269 z"
       id="path4618"
       inkscape:connector-curvature="0"
       sodipodi:nodetypes="cccccc" />
    <path
       style="fill:#ffffff;fill-opacity:1;stroke:#000000;stroke-width:0.26178074px;stroke-linecap:butt;stroke-linejoin:miter;stroke-opacity:1"
       d="m 39.089363,155.85569 -0.02279,-1.48204 c 0,0 18.554934,-0.25013 20.709702,-0.65351 2.419351,-0.17183 4.518995,-0.5185 4.518995,-0.5185 l -1.313844,0.78825 c 0,0 -6.244887,1.63837 -9.520155,1.73875 -3.275272,0.10037 -14.371899,0.12709 -14.371899,0.12709 z"
       id="path4616"
       inkscape:connector-curvature="0"
       sodipodi:nodetypes="cccccccc" />
    <path
       style="fill:none;stroke:#000000;stroke-width:0.31900001;stroke-linecap:butt;stroke-linejoin:miter;stroke-miterlimit:4;stroke-dasharray:none;stroke-opacity:1"
       d="m 73.182389,142.45836 c 0,0 -0.820536,1.84587 -0.646483,3.49889 0.174052,1.65302 0.870267,3.03053 0.870267,3.03053"
       id="path4620"
       inkscape:connector-curvature="0" />
  </g>
</svg>
