<?xml version="1.0" encoding="UTF-8" standalone="no"?>
<!-- Created with Inkscape (http://www.inkscape.org/) -->

<svg
   xmlns:dc="http://purl.org/dc/elements/1.1/"
   xmlns:cc="http://creativecommons.org/ns#"
   xmlns:rdf="http://www.w3.org/1999/02/22-rdf-syntax-ns#"
   xmlns:svg="http://www.w3.org/2000/svg"
   xmlns="http://www.w3.org/2000/svg"
   xmlns:sodipodi="http://sodipodi.sourceforge.net/DTD/sodipodi-0.dtd"
   xmlns:inkscape="http://www.inkscape.org/namespaces/inkscape"
   width="210mm"
   height="297mm"
   viewBox="0 0 210 297"
   version="1.1"
   id="svg9171"
   inkscape:version="0.92.1 r15371"
   sodipodi:docname="robberinjail.svg">
  <defs
     id="defs9165" />
  <sodipodi:namedview
     id="base"
     pagecolor="#ffffff"
     bordercolor="#666666"
     borderopacity="1.0"
     inkscape:pageopacity="0.0"
     inkscape:pageshadow="2"
     inkscape:zoom="0.35355339"
     inkscape:cx="1077.3037"
     inkscape:cy="861.62711"
     inkscape:document-units="mm"
     inkscape:current-layer="layer1"
     showgrid="false"
     inkscape:window-width="1920"
     inkscape:window-height="1001"
     inkscape:window-x="-9"
     inkscape:window-y="-9"
     inkscape:window-maximized="1" />
  <metadata
     id="metadata9168">
    <rdf:RDF>
      <cc:Work
         rdf:about="">
        <dc:format>image/svg+xml</dc:format>
        <dc:type
           rdf:resource="http://purl.org/dc/dcmitype/StillImage" />
        <dc:title></dc:title>
      </cc:Work>
    </rdf:RDF>
  </metadata>
  <g
     inkscape:label="Layer 1"
     inkscape:groupmode="layer"
     id="layer1">
    <path
       style="fill:#facc7f;fill-opacity:1;stroke:#000000;stroke-width:0.30240318;stroke-linecap:butt;stroke-linejoin:miter;stroke-miterlimit:4;stroke-dasharray:none;stroke-opacity:1"
       d="m 96.47727,136.84662 c 0,-0.39245 0.883012,-6.08299 0.883012,-6.08299 l 8.143348,-0.58868 1.07924,-1.56979 -0.88301,-9.71316 2.55092,-0.0981 -2.64904,-4.31696 -0.0981,-3.53205 c 0,0 -11.871629,-1.76603 -13.34332,-0.19623 -1.471689,1.5698 -2.452814,17.56216 -2.452814,17.56216 l -2.060365,5.69053 z"
       id="path9716"
       inkscape:connector-curvature="0" />
    <path
       style="fill:#120000;fill-opacity:1;stroke:#000000;stroke-width:0.09550822;stroke-linecap:butt;stroke-linejoin:miter;stroke-miterlimit:4;stroke-dasharray:none;stroke-opacity:1"
       d="m 106.25665,112.11304 c 0,0 -2.15881,-0.24163 -2.83086,-0.17797 -0.67206,0.0637 -1.21986,0.0372 -1.5266,0.009 -0.30673,-0.0286 -4.091623,-0.44489 -4.25082,-0.48005 -0.159191,-0.0352 -1.077118,-0.17564 -1.451803,-0.18001 -0.374682,-0.004 -1.807752,0.009 -2.182436,0.004 -0.374682,-0.004 -1.522965,-0.0475 -1.922547,-0.44996 -0.406027,-0.40891 -0.800208,-0.39572 -0.800208,-0.39572 0,0 -0.302499,0.19138 -0.259071,0.75654 0.04343,0.56515 -0.0063,0.79621 0.108769,0.92537 0.115123,0.12917 0.622523,0.48328 0.860746,0.54972 0.238221,0.0664 1.250248,0.19774 1.886455,0.35208 0.636203,0.15434 1.242267,0.38962 1.785192,0.85531 0.542921,0.46569 0.635311,0.49763 1.036397,0.83287 0.40108,0.33524 1.649621,0.57409 2.222443,0.64297 0.572819,0.0689 1.679373,0.23221 1.971183,0.24631 0.45428,0.022 1.02457,-0.17023 1.63747,-0.0994 0.6077,0.0702 1.36594,0.3132 1.84866,0.29532 0.48271,-0.0179 1.38476,-0.13909 1.53914,-0.31016 0.15438,-0.17107 0.49531,-3.2171 0.32789,-3.37625 z"
       id="path4502"
       inkscape:connector-curvature="0"
       sodipodi:nodetypes="csssssscsscssssssssc" />
    <path
       style="fill:#120000;fill-opacity:1;stroke:#000000;stroke-width:0.15865202;stroke-linecap:butt;stroke-linejoin:miter;stroke-miterlimit:4;stroke-dasharray:none;stroke-opacity:1"
       d="m 90.95038,112.01674 c 0,0 -2.112367,0.57643 -2.284308,0.3012 -0.171942,-0.27523 1.867059,-1.18111 1.867059,-1.18111 0,0 -1.928726,-1.41473 -1.789744,-1.72231 0.138983,-0.30758 2.547989,1.02786 2.547989,1.02786 z"
       id="path4523"
       inkscape:connector-curvature="0"
       sodipodi:nodetypes="cccscc" />
    <path
       style="fill:#fff3f3;fill-opacity:1;stroke:#000000;stroke-width:0.06560217px;stroke-linecap:butt;stroke-linejoin:miter;stroke-opacity:1"
       d="m 104.38678,114.4204 c -2.01418,0.19623 -3.17793,0.19623 -3.17793,0.19623 l 0.0895,-1.5698 c 2.12575,0.34184 3.60595,-0.004 3.08841,1.37357 z"
       id="path10338"
       inkscape:connector-curvature="0"
       sodipodi:nodetypes="cccc" />
    <path
       style="fill:#0b0000;fill-opacity:1;stroke:#000000;stroke-width:0.06867883px;stroke-linecap:butt;stroke-linejoin:miter;stroke-opacity:1"
       d="m 104.39639,113.73516 c 0,0 -0.57236,-0.3122 -0.81517,-0.12141 -0.24282,0.19078 -0.24282,0.5897 -0.24282,0.5897 l 0.12141,0.26016 0.92697,-0.0432 c 0,0 0.18305,-0.65056 0.01,-0.68525 z"
       id="path10340"
       inkscape:connector-curvature="0" />
    <path
       style="fill:#f7f4f4;fill-opacity:1;stroke:#000000;stroke-width:0.01687228;stroke-linecap:butt;stroke-linejoin:miter;stroke-miterlimit:4;stroke-dasharray:none;stroke-opacity:1"
       d="m 103.73525,113.68456 c -0.16557,0.14103 -0.14104,0.23302 -0.14104,0.23302 0,0 0.1533,0.0368 0.17783,0.0122 0.0245,-0.0245 0.0736,-0.18396 0.0736,-0.18396 z"
       id="path10342"
       inkscape:connector-curvature="0" />
    <path
       style="fill:#ffffff;fill-opacity:1;stroke:#000000;stroke-width:0.02595736;stroke-linecap:butt;stroke-linejoin:miter;stroke-miterlimit:4;stroke-dasharray:none;stroke-opacity:1"
       d="m 103.54515,114.05248 c 0.1533,0.0429 0.18396,0.0184 0.14104,0.12264 -0.0429,0.10424 -0.0674,0.14717 -0.0674,0.14717 0,0 -0.11651,-0.092 -0.11651,-0.12264 0,-0.0307 0.0429,-0.14717 0.0429,-0.14717 z"
       id="path10344"
       inkscape:connector-curvature="0"
       sodipodi:nodetypes="cccsc" />
    <path
       style="fill:none;stroke:#000000;stroke-width:0.25048849;stroke-linecap:butt;stroke-linejoin:miter;stroke-miterlimit:4;stroke-dasharray:none;stroke-opacity:1"
       d="m 106.02672,123.1703 c 0,0 -1.59565,-0.34687 -3.1913,0.0694 -1.59565,0.41626 -1.66502,0.41626 -1.66502,0.41626"
       id="path10358"
       inkscape:connector-curvature="0" />
    <path
       style="fill:#ffffff;fill-opacity:1;stroke:#000000;stroke-width:0.39959753;stroke-linecap:butt;stroke-linejoin:miter;stroke-miterlimit:4;stroke-dasharray:none;stroke-opacity:1"
       d="m 87.647133,134.00135 -4.794478,0.31203 c 0,0 -7.298328,13.53509 -7.696418,23.88544 -0.398092,10.35036 0.928878,13.0043 0.928878,13.0043 l 22.558468,1.59236 6.502147,-26.80477 -5.971361,-10.21766 -2.388544,-1.99045 -0.308556,3.06402 z"
       id="path10360"
       inkscape:connector-curvature="0"
       sodipodi:nodetypes="ccsccccccc" />
    <path
       style="fill:none;stroke:#000000;stroke-width:2.95904088;stroke-linecap:butt;stroke-linejoin:miter;stroke-miterlimit:4;stroke-dasharray:none;stroke-opacity:1"
       d="m 76.902726,148.78002 27.051314,2.26895"
       id="path10385-9"
       inkscape:connector-curvature="0" />
    <path
       style="fill:none;stroke:#000000;stroke-width:3.0113461;stroke-linecap:butt;stroke-linejoin:miter;stroke-miterlimit:4;stroke-dasharray:none;stroke-opacity:1"
       d="m 80.224428,140.95777 25.017782,2.54087"
       id="path10385-5"
       inkscape:connector-curvature="0" />
    <path
       style="fill:none;stroke:#000000;stroke-width:3.0973773;stroke-linecap:butt;stroke-linejoin:miter;stroke-miterlimit:4;stroke-dasharray:none;stroke-opacity:1"
       d="m 75.298581,155.40885 26.939139,2.49641"
       id="path10385-6"
       inkscape:connector-curvature="0" />
    <path
       style="fill:none;stroke:#000000;stroke-width:2.99582911;stroke-linecap:butt;stroke-linejoin:miter;stroke-miterlimit:4;stroke-dasharray:none;stroke-opacity:1"
       d="m 75.229134,165.09718 24.783366,2.53854"
       id="path10385"
       inkscape:connector-curvature="0" />
    <path
       style="fill:#ffffff;fill-opacity:1;stroke:#000000;stroke-width:0.39959753;stroke-linecap:butt;stroke-linejoin:miter;stroke-miterlimit:4;stroke-dasharray:none;stroke-opacity:1"
       d="m 82.852655,134.31338 6.502146,2.38855 -4.2463,12.87159 8.09451,11.14654 -3.582816,4.90979 -11.544627,-12.07542 1.459665,-12.07541 z"
       id="path10362"
       inkscape:connector-curvature="0" />
    <path
       style="fill:#ffffff;fill-opacity:1;stroke:#000000;stroke-width:0.49251172;stroke-linecap:butt;stroke-linejoin:miter;stroke-miterlimit:4;stroke-dasharray:none;stroke-opacity:1"
       d="m 100.61527,137.72473 10.03173,5.78619 11.16434,-3.47172 v 6.28215 l -10.19353,3.3064 -6.47208,-3.63704 z"
       id="path10364"
       inkscape:connector-curvature="0" />
    <path
       style="fill:#0e0e0e;fill-opacity:1;stroke:#000000;stroke-width:0.39959753;stroke-linecap:butt;stroke-linejoin:miter;stroke-miterlimit:4;stroke-dasharray:none;stroke-opacity:1"
       d="m 98.643583,172.79548 5.175177,13.13699 -2.52124,16.7198 h -8.094509 l 2.12315,-15.26014 -7.298329,-12.34081 -2.521239,12.6062 -12.34081,13.26969 -6.369449,-6.10406 9.28878,-10.61574 v -13.00429 z"
       id="path10366"
       inkscape:connector-curvature="0" />
    <path
       style="fill:#190000;fill-opacity:1;stroke:#000000;stroke-width:0.34736258;stroke-linecap:butt;stroke-linejoin:miter;stroke-miterlimit:4;stroke-dasharray:none;stroke-opacity:1"
       d="m 73.165783,200.92721 c 0,0 1.592362,0.3981 1.990454,2.38855 0.39809,1.99045 -0.663485,3.45012 -0.663485,3.45012 l -9.819568,-9.68688 2.12315,-2.25585 z"
       id="path10368"
       inkscape:connector-curvature="0" />
    <path
       style="fill:#190000;fill-opacity:1;stroke:#000000;stroke-width:0.34736258;stroke-linecap:butt;stroke-linejoin:miter;stroke-miterlimit:4;stroke-dasharray:none;stroke-opacity:1"
       d="m 101.91899,202.82064 c 0,0 1.43271,-0.80091 3.08633,0.37633 1.65362,1.17725 1.8803,2.96783 1.8803,2.96783 l -13.789518,-0.32928 0.0012,-3.09784 z"
       id="path10368-8"
       inkscape:connector-curvature="0" />
    <path
       style="fill:none;stroke:#000000;stroke-width:1.89948058;stroke-linecap:butt;stroke-linejoin:miter;stroke-miterlimit:4;stroke-dasharray:none;stroke-opacity:1"
       d="m 85.724783,161.74147 5.12403,-4.13845"
       id="path10414"
       inkscape:connector-curvature="0" />
    <path
       style="fill:none;stroke:#000000;stroke-width:2.12368917;stroke-linecap:butt;stroke-linejoin:miter;stroke-miterlimit:4;stroke-dasharray:none;stroke-opacity:1"
       d="m 80.586376,156.36047 6.064877,-4.37059"
       id="path10414-1"
       inkscape:connector-curvature="0" />
    <path
       style="fill:none;stroke:#000000;stroke-width:1.95489836;stroke-linecap:butt;stroke-linejoin:miter;stroke-miterlimit:4;stroke-dasharray:none;stroke-opacity:1"
       d="m 79.044016,146.05054 7.002796,0.66202"
       id="path10414-5"
       inkscape:connector-curvature="0" />
    <path
       style="fill:none;stroke:#000000;stroke-width:1.99628317;stroke-linecap:butt;stroke-linejoin:miter;stroke-miterlimit:4;stroke-dasharray:none;stroke-opacity:1"
       d="m 80.863127,138.75858 7.029287,2.05296"
       id="path10414-9"
       inkscape:connector-curvature="0" />
    <path
       style="fill:none;stroke:#000000;stroke-width:1.82765532;stroke-linecap:butt;stroke-linejoin:miter;stroke-miterlimit:4;stroke-dasharray:none;stroke-opacity:1"
       d="m 116.18395,148.22919 -2.43606,-5.60093"
       id="path10414-3"
       inkscape:connector-curvature="0" />
    <path
       style="fill:none;stroke:#000000;stroke-width:1.67192662;stroke-linecap:butt;stroke-linejoin:miter;stroke-miterlimit:4;stroke-dasharray:none;stroke-opacity:1"
       d="m 105.80357,146.58274 2.98177,-4.44795"
       id="path10414-93"
       inkscape:connector-curvature="0" />
    <path
       style="fill:none;stroke:#000000;stroke-width:1.35105622;stroke-linecap:butt;stroke-linejoin:miter;stroke-miterlimit:4;stroke-dasharray:none;stroke-opacity:1"
       d="m 102.54898,144.47496 2.21038,-4.29806"
       id="path10414-2"
       inkscape:connector-curvature="0" />
    <path
       style="fill:#facc7f;fill-opacity:1;stroke:#000000;stroke-width:0.13820502px;stroke-linecap:butt;stroke-linejoin:miter;stroke-opacity:1"
       d="m 93.203011,160.72006 c 0,0 1.28937,2.66576 0.507565,4.13164 -0.781806,1.46589 -4.090381,0.77815 -4.090381,0.77815 l 3.582816,-4.90979"
       id="path10461"
       inkscape:connector-curvature="0"
       sodipodi:nodetypes="cscc" />
    <path
       style="fill:#facc7f;fill-opacity:1;stroke:#000000;stroke-width:0.14492092px;stroke-linecap:butt;stroke-linejoin:miter;stroke-opacity:1"
       d="m 121.97287,139.88881 c 0,0 2.76605,1.41191 3.04051,3.13179 0.27445,1.7199 -2.92754,3.23901 -2.92754,3.23901 l -0.11297,-6.3708"
       id="path10461-5"
       inkscape:connector-curvature="0"
       sodipodi:nodetypes="cscc" />
    <path
       style="fill:#a28148;fill-opacity:1;stroke:#000000;stroke-width:0.13057618px;stroke-linecap:butt;stroke-linejoin:miter;stroke-opacity:1"
       d="m 121.97287,139.88881 c 0.82929,6.3839 -0.92143,11.84259 -1.65857,12.49024 -0.73714,0.64764 -5.25213,5.73625 -5.71285,7.7717 -0.46071,2.03545 -0.92143,2.40552 1.47428,7.40162 2.39571,4.99609 9.76713,8.6969 13.45284,6.56894 3.68571,-2.12797 6.72642,-4.34846 7.74,-7.77171 1.01356,-3.42325 3.22499,-8.04926 -0.55286,-10.91739 -3.77786,-2.86812 -12.0707,-3.33073 -11.97856,-6.93902 0.0921,-3.60829 2.21142,-5.92129 2.30357,-6.47642 0.0921,-0.55512 -0.92143,-1.48032 -1.84285,-1.11024 -0.92143,0.37008 -1.38215,1.29528 -1.65857,0.4626 -0.27642,-0.83268 -1.56643,-1.48032 -1.56643,-1.48032 z"
       id="path10478"
       inkscape:connector-curvature="0" />
    <path
       style="fill:none;stroke:#000000;stroke-width:0.13820502px;stroke-linecap:butt;stroke-linejoin:miter;stroke-opacity:1"
       d="m 128.20775,158.9393 c -0.16287,-0.0652 -0.32575,-0.1303 -0.48863,-0.19545 -0.0326,0 -0.0668,0.0103 -0.0977,0 -0.0691,-0.023 -0.12635,-0.0747 -0.19545,-0.0977 -0.0309,-0.0103 -0.0652,0 -0.0977,0 -0.16287,0 -0.32575,0 -0.48863,0 -0.48863,0 -0.97725,0 -1.46588,0 -0.2744,0 0.1429,-0.0181 -0.39091,0.19545 -0.0605,0.0242 -0.13156,-0.0128 -0.19544,0 -0.10102,0.0202 -0.19157,0.0808 -0.29318,0.0977 -0.0964,0.0161 -0.19735,-0.0192 -0.29318,0 -0.0714,0.0143 -0.12402,0.0834 -0.19545,0.0977 -0.0958,0.0192 -0.20047,-0.0309 -0.29318,0 -0.11142,0.0371 -0.18412,0.15183 -0.29317,0.19545 -0.0605,0.0242 -0.13031,0 -0.19546,0 -0.0977,0.0326 -0.20104,0.0517 -0.29318,0.0977 -0.0412,0.0206 -0.0609,0.0701 -0.0977,0.0977 -0.0666,0.05 -0.36619,0.25819 -0.48862,0.29317 -0.16288,0.0326 -0.32575,0.0652 -0.48863,0.0977 -0.0652,0.0651 -0.11076,0.15916 -0.19545,0.19545 -0.15267,0.0654 -0.33105,0.0452 -0.48863,0.0977 -0.13821,0.0461 -0.257,0.13806 -0.3909,0.19545 -0.0977,0.0326 -0.19545,0.0651 -0.29318,0.0977 -0.0326,0.0326 -0.0565,0.0771 -0.0977,0.0977 -0.0921,0.0461 -0.21077,0.0359 -0.29318,0.0977 -0.0583,0.0437 -0.0462,0.14395 -0.0977,0.19546 -0.0515,0.0515 -0.14394,0.0462 -0.19544,0.0977 -0.023,0.023 0,0.0651 0,0.0977 -0.0326,0.0326 -0.0594,0.0722 -0.0977,0.0977 -0.0606,0.0404 -0.14395,0.0462 -0.19546,0.0977 -0.023,0.023 0.0103,0.0668 0,0.0977 -0.023,0.0691 -0.0747,0.12635 -0.0977,0.19546 -0.0103,0.0309 0.0146,0.0686 0,0.0977 -0.0206,0.0412 -0.0771,0.0565 -0.0977,0.0977 -0.007,0.0145 -0.007,0.36944 0,0.3909 0.023,0.0691 0.0462,0.14395 0.0977,0.19545 0.18235,0.18235 0.28629,0.0454 0.39091,0.0977 0.0412,0.0206 0.0565,0.0771 0.0977,0.0977 0.0292,0.0146 0.0686,-0.0146 0.0977,0 0.0412,0.0206 0.0565,0.0771 0.0977,0.0977 0.0311,0.0156 0.40129,0 0.48863,0 0.0326,0 0.0747,-0.023 0.0977,0 0.023,0.023 -0.023,0.0747 0,0.0977 0.0461,0.0461 0.13718,-0.0291 0.19545,0 0.0412,0.0206 0.054,0.0832 0.0977,0.0977 0.44488,0 0.006,-0.0461 0.29318,0.0977 0.0583,0.0291 0.13718,-0.0291 0.19545,0 0.0412,0.0206 0.0565,0.0771 0.0977,0.0977 0.0292,0.0146 0.0747,-0.023 0.0977,0 0.0515,0.0515 0.0462,0.14395 0.0977,0.19545 0.023,0.023 0.0668,-0.0103 0.0977,0 0.0691,0.023 0.12478,0.0801 0.19545,0.0977 0.60335,0.15083 -0.0588,-0.088 0.29318,0 0.0999,0.025 0.19324,0.0727 0.29318,0.0977 0.0316,0.008 0.0668,-0.0103 0.0977,0 0.0691,0.023 0.12635,0.0747 0.19545,0.0977 0.082,0.0273 0.43341,-0.0276 0.48863,0 0.10505,0.0525 0.18412,0.15183 0.29318,0.19545 0.0605,0.0242 0.1303,0 0.19545,0 0.0751,0 0.49595,-0.0226 0.58635,0 0.0999,0.025 0.19217,0.0775 0.29318,0.0977 0.0639,0.0128 0.1303,0 0.19545,0 0.19545,0 0.3909,0 0.58636,0 0.0326,0 0.0686,-0.0146 0.0977,0 0.0412,0.0206 0.0565,0.0771 0.0977,0.0977 0.0782,0.0391 0.215,-0.0391 0.29318,0 0.0412,0.0206 0.0565,0.0771 0.0977,0.0977 0.0292,0.0146 0.0652,0 0.0977,0 0.0652,0.0326 0.13484,0.0573 0.19544,0.0977 0.0383,0.0255 0.0565,0.0771 0.0977,0.0977 0.0292,0.0146 0.0747,-0.023 0.0977,0 0.023,0.023 -0.0103,0.0668 0,0.0977 0.0238,0.0714 0.106,0.24846 0.19546,0.29318 0.0292,0.0146 0.0686,-0.0146 0.0977,0 0.44725,0.22363 -0.4147,-0.0405 0.29318,0.19546 0.0309,0.0103 0.0747,-0.023 0.0977,0 0.023,0.023 -0.0146,0.0686 0,0.0977 0.0412,0.0824 0.16631,0.10805 0.19545,0.19545 0.0206,0.0618 -0.0292,0.13718 0,0.19545 0.0146,0.0291 0.0747,-0.023 0.0977,0 0.0652,0.0652 -0.0652,0.13026 0,0.19546 0.023,0.023 0.0747,-0.023 0.0977,0 0.023,0.023 0,0.0651 0,0.0977 0,0.092 0.0185,0.43304 0,0.48863 -0.0146,0.0437 -0.0652,0.0651 -0.0977,0.0977 -0.0326,0.0326 -0.0652,0.0651 -0.0977,0.0977 -0.0326,0.0326 -0.0565,0.0771 -0.0977,0.0977 -0.0292,0.0146 -0.0668,-0.0103 -0.0977,0 -0.35429,0.1181 -0.0696,0.0464 -0.29318,0.19546 -0.0606,0.0404 -0.14394,0.0462 -0.19545,0.0977 -0.11903,0.11903 -0.0458,0.21835 -0.19545,0.29318 -0.0921,0.0461 -0.20104,0.0517 -0.29318,0.0977 -0.0412,0.0206 -0.0565,0.0771 -0.0977,0.0977 -0.0291,0.0146 -0.0686,-0.0146 -0.0977,0 -0.0412,0.0206 -0.054,0.0832 -0.0977,0.0977 -0.0618,0.0206 -0.13364,-0.0206 -0.19545,0 -0.0437,0.0146 -0.0565,0.0771 -0.0977,0.0977 -0.0354,0.0177 -0.42066,0 -0.48863,0 -0.22803,0 -0.45605,0 -0.68408,0 -0.0977,0 -0.19545,0 -0.29318,0 -0.0652,0 -0.13364,0.0206 -0.19545,0 -0.0437,-0.0146 -0.054,-0.0832 -0.0977,-0.0977 -0.054,-0.018 -0.48793,0 -0.58635,0 -0.26061,0 -0.52121,0 -0.78181,0 -0.0977,0 -0.19678,0.0161 -0.29317,0 -0.10162,-0.0169 -0.19324,-0.0728 -0.29318,-0.0977 -0.0632,-0.0158 -0.1303,0 -0.19545,0 -0.19545,0 -0.39091,0 -0.58636,0 -0.0326,0 -0.0652,0 -0.0977,0 -0.0326,0 -0.0686,0.0146 -0.0977,0 -0.0412,-0.0206 -0.0565,-0.0771 -0.0977,-0.0977 -0.0292,-0.0146 -0.0652,0 -0.0977,0 -0.2053,0 -0.10621,0.0181 -0.3909,-0.19545 -0.0737,-0.0553 -0.11304,-0.15425 -0.19545,-0.19546 -0.0292,-0.0146 -0.0652,0 -0.0977,0 -0.0652,0 -0.13718,0.0292 -0.19546,0 -0.0291,-0.0146 -0.023,-0.0747 0,-0.0977 0.023,-0.023 0.0652,0 0.0977,0"
       id="path10480"
       inkscape:connector-curvature="0" />
    <path
       style="fill:none;stroke:#000000;stroke-width:0.13820502px;stroke-linecap:butt;stroke-linejoin:miter;stroke-opacity:1"
       d="m 122.24648,157.37569 c 0.0326,0.16287 0.0794,0.32354 0.0977,0.48863 0.0144,0.1295 0,0.2606 0,0.3909 0,0.2606 0,0.5212 0,0.7818 0,0.16288 0.0292,0.32838 0,0.48863 -0.0368,0.2027 -0.16158,0.38314 -0.19545,0.58636 -0.0321,0.19279 0.0162,0.39158 0,0.58635 -0.0164,0.19746 -0.0813,0.38889 -0.0977,0.58635 -0.0162,0.19478 0.0383,0.3947 0,0.58636 -0.0286,0.14285 -0.16689,0.24805 -0.19545,0.3909 -0.0383,0.19166 0,0.3909 0,0.58636 0,0.16287 0,0.32575 0,0.48863 0,0.2606 0,0.5212 0,0.7818 0,0.1303 0,0.2606 0,0.3909 0,0.0977 -0.0161,0.19678 0,0.29318 0.0169,0.10161 0.0775,0.19217 0.0977,0.29318 0.0127,0.0639 -0.0128,0.13157 0,0.19545 0.0202,0.10101 0.0727,0.19324 0.0977,0.29318 0.008,0.0316 -0.0146,0.0686 0,0.0977 0.0206,0.0412 0.0771,0.0565 0.0977,0.0977 0.0146,0.0291 -0.0103,0.0668 0,0.0977 0.023,0.0691 0.0747,0.12635 0.0977,0.19546 0.0184,0.0551 0,0.22896 0,0.29317 0,0.16288 0,0.32575 0,0.48863 0,0.0652 -0.0206,0.13365 0,0.19546 0.023,0.0691 0.0747,0.12634 0.0977,0.19544 0.0103,0.0309 0,0.0652 0,0.0977 0,0.0977 0,0.19545 0,0.29318 0,0.19545 0,0.3909 0,0.58635 0,0.1303 0,0.2606 0,0.3909 0,0.0326 0,0.0651 0,0.0977 0,0.0326 0.0326,0.0977 0,0.0977 -0.0326,0 0,-0.0651 0,-0.0977 0,-0.0326 0,-0.0651 0,-0.0977 0,-0.22802 0,-0.45605 0,-0.68408"
       id="path10482"
       inkscape:connector-curvature="0" />
    <path
       style="fill:none;stroke:#000000;stroke-width:0.13820502px;stroke-linecap:butt;stroke-linejoin:miter;stroke-opacity:1"
       d="m 123.22374,159.23247 c 0.22803,-0.35832 0.40439,-0.75534 0.68408,-1.07498 0.0644,-0.0735 0,0.19545 0,0.29318 0,0.2606 0,0.5212 0,0.7818 0,0.74924 0,1.49846 0,2.2477 0,0.13726 0.0202,1.05153 0,1.1727 -0.008,0.0455 -0.0771,0.0565 -0.0977,0.0977 -0.0307,0.0614 0.0307,0.32948 0,0.3909 -0.0525,0.10505 -0.14292,0.18813 -0.19545,0.29318 -0.0146,0.0292 0,0.0652 0,0.0977 0,0.0977 0,0.19545 0,0.29317 0,0.22803 0,0.45606 0,0.68408 0,0.0652 0,0.1303 0,0.19546 0,0.0326 -0.0103,0.0668 0,0.0977 0.023,0.0691 0.0801,0.12479 0.0977,0.19545 0.0158,0.0632 -0.0206,0.13364 0,0.19545 0.0146,0.0437 0.0771,0.0565 0.0977,0.0977 0.0146,0.0291 -0.008,0.0661 0,0.0977 0.025,0.0999 0.0727,0.19323 0.0977,0.29317 0.0307,0.12264 -0.0307,0.26827 0,0.39091 0.0177,0.0707 0.0747,0.12634 0.0977,0.19544 0.0103,0.0309 0,0.0652 0,0.0977 0,0.0652 0,0.13031 0,0.19545 0,0.16288 0,0.32576 0,0.48864 0,0.0651 -0.0128,0.13156 0,0.19544 0.0202,0.10101 0.0727,0.19325 0.0977,0.29318 0.008,0.0316 0,0.0652 0,0.0977 0,0.1303 0,0.2606 0,0.3909 0,0.32575 0,0.6515 0,0.97726"
       id="path10484"
       inkscape:connector-curvature="0" />
    <path
       style="fill:none;stroke:#000000;stroke-width:0.13820502px;stroke-linecap:butt;stroke-linejoin:miter;stroke-opacity:1"
       d="m 122.53966,150.63261 c -0.45382,-4.373 0.3909,-6.74307 0.3909,-6.74307"
       id="path10486"
       inkscape:connector-curvature="0" />
    <path
       style="fill:none;stroke:#000000;stroke-width:0.13820502px;stroke-linecap:butt;stroke-linejoin:miter;stroke-opacity:1"
       d="m 125.71323,152.05621 c -1.58935,-2.14217 -1.86576,-2.14217 -1.72756,-3.73153 0.13821,-1.58936 0.13821,-1.58936 0.13821,-1.58936"
       id="path10488"
       inkscape:connector-curvature="0" />
    <path
       style="fill:#8f8f8f;fill-opacity:1;stroke:#000000;stroke-width:1.48000002;stroke-linecap:butt;stroke-linejoin:miter;stroke-miterlimit:4;stroke-dasharray:none;stroke-opacity:1"
       d="M 183.46688,85.568174 H 10.298268 v 9.888194 H 183.46688 Z"
       id="path5141"
       inkscape:connector-curvature="0" />
    <path
       style="fill:#8f8f8f;fill-opacity:1;stroke:#000000;stroke-width:1.48000002;stroke-linecap:butt;stroke-linejoin:miter;stroke-miterlimit:4;stroke-dasharray:none;stroke-opacity:1"
       d="M 182.93822,209.1854 H 9.7696083 v 9.88819 H 182.93822 Z"
       id="path5141-9"
       inkscape:connector-curvature="0" />
    <path
       style="fill:#8f8f8f;fill-opacity:1;stroke:#000000;stroke-width:0.97891706;stroke-linecap:butt;stroke-linejoin:miter;stroke-miterlimit:4;stroke-dasharray:none;stroke-opacity:1"
       d="M 20.196478,95.301101 V 209.33318 h 3.93198 l 0.0885,-114.033594 z"
       id="path5158"
       inkscape:connector-curvature="0"
       sodipodi:nodetypes="ccccc" />
    <path
       style="fill:#8f8f8f;fill-opacity:1;stroke:#000000;stroke-width:0.97891706;stroke-linecap:butt;stroke-linejoin:miter;stroke-miterlimit:4;stroke-dasharray:none;stroke-opacity:1"
       d="M 39.511248,95.307252 V 209.33933 h 3.93199 l 0.0885,-114.033593 z"
       id="path5158-6"
       inkscape:connector-curvature="0"
       sodipodi:nodetypes="ccccc" />
    <path
       style="fill:#8f8f8f;fill-opacity:1;stroke:#000000;stroke-width:0.97891706;stroke-linecap:butt;stroke-linejoin:miter;stroke-miterlimit:4;stroke-dasharray:none;stroke-opacity:1"
       d="M 58.032078,95.307249 V 209.33933 h 3.93198 l 0.0885,-114.033596 z"
       id="path5158-0"
       inkscape:connector-curvature="0"
       sodipodi:nodetypes="ccccc" />
    <path
       style="fill:#8f8f8f;fill-opacity:1;stroke:#000000;stroke-width:0.97891951;stroke-linecap:butt;stroke-linejoin:miter;stroke-miterlimit:4;stroke-dasharray:none;stroke-opacity:1"
       d="M 76.867728,95.307257 V 209.33933 h 3.93198 l 0.0885,-114.033588 z"
       id="path5158-3"
       inkscape:connector-curvature="0"
       sodipodi:nodetypes="ccccc" />
    <path
       style="fill:#8f8f8f;fill-opacity:1;stroke:#000000;stroke-width:0.9789173;stroke-linecap:butt;stroke-linejoin:miter;stroke-miterlimit:4;stroke-dasharray:none;stroke-opacity:1"
       d="M 95.07376,95.307256 V 209.33933 h 3.931966 l 0.0885,-114.03359 z"
       id="path5158-3-1"
       inkscape:connector-curvature="0"
       sodipodi:nodetypes="ccccc" />
    <path
       style="fill:#8f8f8f;fill-opacity:1;stroke:#000000;stroke-width:0.97891921;stroke-linecap:butt;stroke-linejoin:miter;stroke-miterlimit:4;stroke-dasharray:none;stroke-opacity:1"
       d="M 113.90948,95.307257 V 209.33933 h 3.93198 l 0.0885,-114.033588 z"
       id="path5158-3-8"
       inkscape:connector-curvature="0"
       sodipodi:nodetypes="ccccc" />
    <path
       style="fill:#8f8f8f;fill-opacity:1;stroke:#000000;stroke-width:0.97891921;stroke-linecap:butt;stroke-linejoin:miter;stroke-miterlimit:4;stroke-dasharray:none;stroke-opacity:1"
       d="M 132.43043,95.307257 V 209.33933 h 3.93198 l 0.0885,-114.033588 z"
       id="path5158-3-3"
       inkscape:connector-curvature="0"
       sodipodi:nodetypes="ccccc" />
    <path
       style="fill:#8f8f8f;fill-opacity:1;stroke:#000000;stroke-width:0.978917;stroke-linecap:butt;stroke-linejoin:miter;stroke-miterlimit:4;stroke-dasharray:none;stroke-opacity:1"
       d="m 150.90116,95.30725 v 114.03208 h 3.93199 l 0.0885,-114.033596 z"
       id="path5158-3-5"
       inkscape:connector-curvature="0"
       sodipodi:nodetypes="ccccc" />
    <path
       style="fill:#8f8f8f;fill-opacity:1;stroke:#000000;stroke-width:0.97891921;stroke-linecap:butt;stroke-linejoin:miter;stroke-miterlimit:4;stroke-dasharray:none;stroke-opacity:1"
       d="M 167.83412,95.307253 V 209.33933 h 3.93198 l 0.0885,-114.033592 z"
       id="path5158-3-4"
       inkscape:connector-curvature="0"
       sodipodi:nodetypes="ccccc" />
    <path
       style="fill:#a2a2a2;fill-opacity:1;stroke:#000000;stroke-width:1.06500006;stroke-linecap:butt;stroke-linejoin:miter;stroke-miterlimit:4;stroke-dasharray:none;stroke-opacity:1"
       d="m 88.868088,157.63443 h 17.042872 v 13.75833 H 88.977688 Z"
       id="path5250"
       inkscape:connector-curvature="0"
       sodipodi:nodetypes="ccccc" />
    <g
       id="g5266"
       transform="translate(-0.70000703,-53.437436)">
      <ellipse
         ry="3.0401909"
         rx="2.9466465"
         cy="216.87929"
         cx="97.894142"
         id="path5260"
         style="opacity:1;fill:#000000;fill-opacity:1;stroke-width:1.06500006;stroke-miterlimit:4;stroke-dasharray:none" />
      <rect
         y="218.32921"
         x="96.444206"
         height="4.8643055"
         width="2.8998742"
         id="rect5262"
         style="opacity:1;fill:#000000;fill-opacity:1;stroke-width:1.06500006;stroke-miterlimit:4;stroke-dasharray:none" />
    </g>
    <path
       style="fill:#a2a2a2;fill-opacity:1;stroke:#000000;stroke-width:0.56500006;stroke-linecap:butt;stroke-linejoin:miter;stroke-miterlimit:4;stroke-dasharray:none;stroke-opacity:1"
       d="m 92.063865,157.37613 v -9.26089 c 0,0 2.993405,-2.61924 5.144893,-2.52569 2.151498,0.0935 4.770742,2.15151 5.051382,2.52569 0.28063,0.37418 0,9.2375 0,9.2375 l -1.78468,0.0895 0.10092,-8.5319 c 0,0 -1.894271,-2.12814 -3.835289,-1.7072 -1.449924,0.25726 -2.712765,1.37978 -2.899855,1.66043 -0.18709,0.28063 -0.0702,8.51252 -0.0702,8.51252 z"
       id="path5268"
       inkscape:connector-curvature="0"
       sodipodi:nodetypes="ccccccccccc" />
  </g>
</svg>
