<?xml version="1.0" encoding="UTF-8" standalone="no"?>
<!-- Created with Inkscape (http://www.inkscape.org/) -->

<svg
   xmlns:dc="http://purl.org/dc/elements/1.1/"
   xmlns:cc="http://creativecommons.org/ns#"
   xmlns:rdf="http://www.w3.org/1999/02/22-rdf-syntax-ns#"
   xmlns:svg="http://www.w3.org/2000/svg"
   xmlns="http://www.w3.org/2000/svg"
   xmlns:sodipodi="http://sodipodi.sourceforge.net/DTD/sodipodi-0.dtd"
   xmlns:inkscape="http://www.inkscape.org/namespaces/inkscape"
   width="210mm"
   height="297mm"
   viewBox="0 0 210 297"
   version="1.1"
   id="svg9171"
   inkscape:version="0.92.1 r15371"
   sodipodi:docname="robber.svg">
  <defs
     id="defs9165" />
  <sodipodi:namedview
     id="base"
     pagecolor="#ffffff"
     bordercolor="#666666"
     borderopacity="1.0"
     inkscape:pageopacity="0.0"
     inkscape:pageshadow="2"
     inkscape:zoom="2"
     inkscape:cx="456.14321"
     inkscape:cy="719.35686"
     inkscape:document-units="mm"
     inkscape:current-layer="layer1"
     showgrid="false"
     inkscape:window-width="1920"
     inkscape:window-height="1001"
     inkscape:window-x="-9"
     inkscape:window-y="-9"
     inkscape:window-maximized="1" />
  <metadata
     id="metadata9168">
    <rdf:RDF>
      <cc:Work
         rdf:about="">
        <dc:format>image/svg+xml</dc:format>
        <dc:type
           rdf:resource="http://purl.org/dc/dcmitype/StillImage" />
        <dc:title></dc:title>
      </cc:Work>
    </rdf:RDF>
  </metadata>
  <g
     inkscape:label="Layer 1"
     inkscape:groupmode="layer"
     id="layer1">
    <path
       style="fill:#facc7f;fill-opacity:1;stroke:#000000;stroke-width:0.57892859;stroke-linecap:butt;stroke-linejoin:miter;stroke-miterlimit:4;stroke-dasharray:none;stroke-opacity:1"
       d="m 90.609063,125.8011 c 0,-0.75132 1.690463,-11.64543 1.690463,-11.64543 l 15.589844,-1.12698 2.06612,-3.00526 -1.69046,-18.595115 4.88356,-0.18782 -5.0714,-8.264499 -0.18782,-6.761853 c 0,0 -22.727359,-3.380928 -25.544804,-0.375658 -2.817439,3.005268 -4.695732,33.621455 -4.695732,33.621455 l -3.944417,10.8941 z"
       id="path9716"
       inkscape:connector-curvature="0" />
    <path
       style="fill:#120000;fill-opacity:1;stroke:#000000;stroke-width:0.18284343;stroke-linecap:butt;stroke-linejoin:miter;stroke-miterlimit:4;stroke-dasharray:none;stroke-opacity:1"
       d="m 109.33096,78.450494 c 0,0 -4.13288,-0.462596 -5.41947,-0.340723 -1.2866,0.121873 -2.33533,0.0712 -2.92256,0.01655 -0.58722,-0.05469 -7.833111,-0.851716 -8.137881,-0.919016 -0.30476,-0.06731 -2.062064,-0.33626 -2.77937,-0.344624 -0.717302,-0.0084 -3.460808,0.01685 -4.178113,0.0084 -0.717302,-0.0084 -2.915604,-0.091 -3.680575,-0.861408 -0.777308,-0.782829 -1.531938,-0.757587 -1.531938,-0.757587 0,0 -0.579113,0.366386 -0.495973,1.448343 0.08314,1.08195 -0.01212,1.524296 0.208231,1.771561 0.220393,0.247275 1.191774,0.925198 1.647833,1.052393 0.456058,0.1272 2.393509,0.378555 3.611479,0.674032 1.217964,0.295467 2.378229,0.745894 3.417619,1.637429 1.039383,0.891535 1.216257,0.952668 1.984106,1.594464 0.767838,0.64179 3.158078,1.099065 4.254703,1.230926 1.09662,0.131857 3.215031,0.444543 3.773685,0.471536 0.869685,0.04204 1.961464,-0.325884 3.134824,-0.190321 1.16338,0.134411 2.61499,0.599586 3.53911,0.565363 0.92412,-0.03424 2.65102,-0.266278 2.94657,-0.593777 0.29555,-0.327505 0.94824,-6.158897 0.62772,-6.463587 z"
       id="path4502"
       inkscape:connector-curvature="0"
       sodipodi:nodetypes="csssssscsscssssssssc" />
    <path
       style="fill:#120000;fill-opacity:1;stroke:#000000;stroke-width:0.3037276;stroke-linecap:butt;stroke-linejoin:miter;stroke-miterlimit:4;stroke-dasharray:none;stroke-opacity:1"
       d="m 80.02824,78.266131 c 0,0 -4.04397,1.103533 -4.373138,0.576623 -0.32917,-0.526904 3.574347,-2.261151 3.574347,-2.261151 0,0 -3.692404,-2.708384 -3.426333,-3.297227 0.266072,-0.588847 4.877937,1.967756 4.877937,1.967756 z"
       id="path4523"
       inkscape:connector-curvature="0"
       sodipodi:nodetypes="cccscc" />
    <path
       style="fill:#fff3f3;fill-opacity:1;stroke:#000000;stroke-width:0.12559052px;stroke-linecap:butt;stroke-linejoin:miter;stroke-opacity:1"
       d="m 105.75123,82.867759 c -3.85599,0.375663 -6.08391,0.375663 -6.08391,0.375663 l 0.171378,-3.005271 c 4.069592,0.654438 6.903342,-0.0074 5.912532,2.629608 z"
       id="path10338"
       inkscape:connector-curvature="0"
       sodipodi:nodetypes="cccc" />
    <path
       style="fill:#0b0000;fill-opacity:1;stroke:#000000;stroke-width:0.13148056px;stroke-linecap:butt;stroke-linejoin:miter;stroke-opacity:1"
       d="m 105.76963,81.555912 c 0,0 -1.09573,-0.597673 -1.56058,-0.232426 -0.46486,0.365242 -0.46486,1.12893 -0.46486,1.12893 l 0.23243,0.498058 1.77461,-0.08272 c 0,0 0.35044,-1.245442 0.0184,-1.311847 z"
       id="path10340"
       inkscape:connector-curvature="0" />
    <path
       style="fill:#f7f4f4;fill-opacity:1;stroke:#000000;stroke-width:0.03230074;stroke-linecap:butt;stroke-linejoin:miter;stroke-miterlimit:4;stroke-dasharray:none;stroke-opacity:1"
       d="m 104.50393,81.459039 c -0.31697,0.270005 -0.27001,0.446099 -0.27001,0.446099 0,0 0.29348,0.07044 0.34044,0.02345 0.047,-0.04696 0.14088,-0.352178 0.14088,-0.352178 z"
       id="path10342"
       inkscape:connector-curvature="0" />
    <path
       style="fill:#ffffff;fill-opacity:1;stroke:#000000;stroke-width:0.04969345;stroke-linecap:butt;stroke-linejoin:miter;stroke-miterlimit:4;stroke-dasharray:none;stroke-opacity:1"
       d="m 104.14,82.163399 c 0.29349,0.08218 0.35218,0.03523 0.27001,0.234787 -0.0822,0.199569 -0.12913,0.281747 -0.12913,0.281747 0,0 -0.22305,-0.176094 -0.22305,-0.234787 0,-0.0587 0.0822,-0.281747 0.0822,-0.281747 z"
       id="path10344"
       inkscape:connector-curvature="0"
       sodipodi:nodetypes="cccsc" />
    <path
       style="fill:none;stroke:#000000;stroke-width:0.47954172;stroke-linecap:butt;stroke-linejoin:miter;stroke-miterlimit:4;stroke-dasharray:none;stroke-opacity:1"
       d="m 108.89079,99.618805 c 0,0 -3.05476,-0.66407 -6.10951,0.13282 -3.054755,0.796885 -3.187571,0.796885 -3.187571,0.796885"
       id="path10358"
       inkscape:connector-curvature="0" />
    <path
       style="fill:#ffffff;stroke:#000000;stroke-width:0.76499999;stroke-linecap:butt;stroke-linejoin:miter;stroke-miterlimit:4;stroke-dasharray:none;stroke-opacity:1;fill-opacity:1"
       d="m 73.704417,120.35404 -9.178673,0.59737 c 0,0 -13.972111,25.91192 -14.734225,45.72691 -0.762117,19.81499 1.778268,24.89576 1.778268,24.89576 l 43.186524,3.04846 12.447879,-51.31575 -11.431729,-19.56095 -4.572691,-3.81058 -0.590708,5.86584 z"
       id="path10360"
       inkscape:connector-curvature="0"
       sodipodi:nodetypes="ccsccccccc" />
    <path
       style="fill:none;stroke:#000000;stroke-width:5.66486549;stroke-linecap:butt;stroke-linejoin:miter;stroke-miterlimit:4;stroke-dasharray:none;stroke-opacity:1"
       d="m 53.135044,148.64671 51.787746,4.34374"
       id="path10385-9"
       inkscape:connector-curvature="0" />
    <path
       style="fill:none;stroke:#000000;stroke-width:5.76499987;stroke-linecap:butt;stroke-linejoin:miter;stroke-miterlimit:4;stroke-dasharray:none;stroke-opacity:1"
       d="M 59.494197,133.67159 107.3889,138.5359"
       id="path10385-5"
       inkscape:connector-curvature="0" />
    <path
       style="fill:none;stroke:#000000;stroke-width:5.92970037;stroke-linecap:butt;stroke-linejoin:miter;stroke-miterlimit:4;stroke-dasharray:none;stroke-opacity:1"
       d="m 50.064026,161.33713 51.572994,4.77918"
       id="path10385-6"
       inkscape:connector-curvature="0" />
    <path
       style="fill:none;stroke:#000000;stroke-width:5.73529387;stroke-linecap:butt;stroke-linejoin:miter;stroke-miterlimit:4;stroke-dasharray:none;stroke-opacity:1"
       d="m 49.931075,179.88472 47.445923,4.85985"
       id="path10385"
       inkscape:connector-curvature="0" />
    <path
       style="fill:#ffffff;stroke:#000000;stroke-width:0.765;stroke-linecap:butt;stroke-linejoin:miter;stroke-opacity:1;stroke-miterlimit:4;stroke-dasharray:none;fill-opacity:1"
       d="m 64.525744,120.95141 12.447878,4.57269 -8.129227,24.64172 15.496341,21.33923 -6.859037,9.39942 -22.101336,-23.11749 2.79442,-23.11749 z"
       id="path10362"
       inkscape:connector-curvature="0" />
    <path
       style="fill:#ffffff;fill-opacity:1;stroke:#000000;stroke-width:0.94287735;stroke-linecap:butt;stroke-linejoin:miter;stroke-miterlimit:4;stroke-dasharray:none;stroke-opacity:1"
       d="m 98.530959,127.48218 19.205011,11.07723 21.3733,-6.64635 v 12.02672 l -19.51475,6.32985 -12.39033,-6.96284 z"
       id="path10364"
       inkscape:connector-curvature="0" />
    <path
       style="fill:#0e0e0e;stroke:#000000;stroke-width:0.765;stroke-linecap:butt;stroke-linejoin:miter;stroke-opacity:1;stroke-miterlimit:4;stroke-dasharray:none;fill-opacity:1"
       d="m 94.75631,194.62254 9.90749,25.1498 -4.826725,32.00883 H 84.340736 L 88.40535,222.56676 74.433239,198.94119 69.606511,223.07483 45.980942,248.47867 33.787101,236.7929 51.569786,216.46984 v -24.89576 z"
       id="path10366"
       inkscape:connector-curvature="0" />
    <path
       style="fill:#190000;stroke:#000000;stroke-width:0.665;stroke-linecap:butt;stroke-linejoin:miter;stroke-opacity:1;stroke-miterlimit:4;stroke-dasharray:none;fill-opacity:1"
       d="m 45.980942,248.47867 c 0,0 3.04846,0.76212 3.810577,4.57269 0.762114,3.81058 -1.270193,6.605 -1.270193,6.605 l -18.798839,-18.5448 4.064614,-4.31866 z"
       id="path10368"
       inkscape:connector-curvature="0" />
    <path
       style="fill:#190000;stroke:#000000;stroke-width:0.66500002;stroke-linecap:butt;stroke-linejoin:miter;stroke-miterlimit:4;stroke-dasharray:none;stroke-opacity:1;fill-opacity:1"
       d="m 101.02684,252.1035 c 0,0 2.74281,-1.53329 5.90855,0.72046 3.16574,2.25375 3.5997,5.68168 3.5997,5.68168 l -26.399022,-0.63037 0.0023,-5.9306 z"
       id="path10368-8"
       inkscape:connector-curvature="0" />
    <path
       style="fill:none;stroke:#000000;stroke-width:3.63641548;stroke-linecap:butt;stroke-linejoin:miter;stroke-miterlimit:4;stroke-dasharray:none;stroke-opacity:1"
       d="m 70.024221,173.46045 9.809578,-7.92276"
       id="path10414"
       inkscape:connector-curvature="0" />
    <path
       style="fill:none;stroke:#000000;stroke-width:4.06564617;stroke-linecap:butt;stroke-linejoin:miter;stroke-miterlimit:4;stroke-dasharray:none;stroke-opacity:1"
       d="m 60.18712,163.15892 11.61076,-8.36717"
       id="path10414-1"
       inkscape:connector-curvature="0" />
    <path
       style="fill:none;stroke:#000000;stroke-width:3.74250865;stroke-linecap:butt;stroke-linejoin:miter;stroke-miterlimit:4;stroke-dasharray:none;stroke-opacity:1"
       d="m 57.234384,143.42132 13.406337,1.2674"
       id="path10414-5"
       inkscape:connector-curvature="0" />
    <path
       style="fill:none;stroke:#000000;stroke-width:3.82173681;stroke-linecap:butt;stroke-linejoin:miter;stroke-miterlimit:4;stroke-dasharray:none;stroke-opacity:1"
       d="m 60.716939,129.46141 13.457051,3.93024"
       id="path10414-9"
       inkscape:connector-curvature="0" />
    <path
       style="fill:none;stroke:#000000;stroke-width:3.49891138;stroke-linecap:butt;stroke-linejoin:miter;stroke-miterlimit:4;stroke-dasharray:none;stroke-opacity:1"
       d="m 128.33605,147.59219 -4.66366,-10.72257"
       id="path10414-3"
       inkscape:connector-curvature="0" />
    <path
       style="fill:none;stroke:#000000;stroke-width:3.20078015;stroke-linecap:butt;stroke-linejoin:miter;stroke-miterlimit:4;stroke-dasharray:none;stroke-opacity:1"
       d="m 108.46357,144.44019 5.70838,-8.51527"
       id="path10414-93"
       inkscape:connector-curvature="0" />
    <path
       style="fill:none;stroke:#000000;stroke-width:2.58649755;stroke-linecap:butt;stroke-linejoin:miter;stroke-miterlimit:4;stroke-dasharray:none;stroke-opacity:1"
       d="m 102.23291,140.405 4.2316,-8.22833"
       id="path10414-2"
       inkscape:connector-curvature="0" />
    <path
       style="fill:#facc7f;fill-opacity:1;stroke:#000000;stroke-width:0.26458332px;stroke-linecap:butt;stroke-linejoin:miter;stroke-opacity:1"
       d="m 84.340736,171.50505 c 0,0 2.468404,5.10339 0.971696,7.90972 -1.496709,2.80633 -7.830733,1.4897 -7.830733,1.4897 l 6.859037,-9.39942"
       id="path10461"
       inkscape:connector-curvature="0"
       sodipodi:nodetypes="cscc" />
    <path
       style="fill:#facc7f;fill-opacity:1;stroke:#000000;stroke-width:0.2774404px;stroke-linecap:butt;stroke-linejoin:miter;stroke-opacity:1"
       d="m 139.41852,131.62515 c 0,0 5.29539,2.70299 5.82082,5.99558 0.52541,3.29262 -5.60456,6.20084 -5.60456,6.20084 l -0.21626,-12.19642"
       id="path10461-5"
       inkscape:connector-curvature="0"
       sodipodi:nodetypes="cscc" />
    <path
       style="fill:#a28148;fill-opacity:1;stroke:#000000;stroke-width:0.24997847px;stroke-linecap:butt;stroke-linejoin:miter;stroke-opacity:1"
       d="m 139.41852,131.62515 c 1.5876,12.2215 -1.76401,22.67177 -3.17522,23.91164 -1.4112,1.23986 -10.05482,10.98163 -10.93682,14.87835 -0.882,3.89671 -1.76401,4.6052 2.8224,14.16985 4.58641,9.56466 18.69845,16.64958 25.75447,12.57575 7.05601,-4.07383 12.87723,-8.32479 14.81764,-14.87835 1.9404,-6.55356 6.17402,-15.40972 -1.05841,-20.90054 -7.23242,-5.49082 -23.10845,-6.37644 -22.93205,-13.28425 0.1764,-6.9078 4.2336,-11.33588 4.41001,-12.39862 0.17639,-1.06274 -1.76401,-2.83397 -3.52801,-2.12548 -1.764,0.7085 -2.64601,2.47972 -3.17521,0.88562 -0.52919,-1.59411 -2.9988,-2.83397 -2.9988,-2.83397 z"
       id="path10478"
       inkscape:connector-curvature="0" />
    <path
       style="fill:none;stroke:#000000;stroke-width:0.26458332px;stroke-linecap:butt;stroke-linejoin:miter;stroke-opacity:1"
       d="m 151.35473,168.0959 c -0.31181,-0.12472 -0.62363,-0.24945 -0.93544,-0.37417 -0.0624,0 -0.12793,0.0197 -0.18709,0 -0.13229,-0.0441 -0.24189,-0.14299 -0.37418,-0.18709 -0.0592,-0.0197 -0.12473,0 -0.18709,0 -0.31181,0 -0.62363,0 -0.93544,0 -0.93545,0 -1.87089,0 -2.80633,0 -0.52531,0 0.27357,-0.0346 -0.74836,0.37418 -0.1158,0.0463 -0.25187,-0.0245 -0.37417,0 -0.19338,0.0387 -0.36674,0.15466 -0.56127,0.18708 -0.18454,0.0308 -0.37781,-0.0367 -0.56126,0 -0.13675,0.0274 -0.23744,0.15975 -0.37418,0.18709 -0.18346,0.0367 -0.38378,-0.0592 -0.56127,0 -0.21331,0.0711 -0.35249,0.29067 -0.56126,0.37418 -0.11581,0.0463 -0.24946,0 -0.37418,0 -0.18709,0.0624 -0.38488,0.0989 -0.56127,0.18709 -0.0789,0.0394 -0.11653,0.13417 -0.18709,0.18709 -0.12759,0.0957 -0.70106,0.4943 -0.93544,0.56126 -0.31181,0.0624 -0.62363,0.12473 -0.93544,0.18709 -0.12473,0.12473 -0.21205,0.3047 -0.37418,0.37418 -0.29228,0.12526 -0.63377,0.0865 -0.93544,0.18709 -0.26459,0.0882 -0.49201,0.26431 -0.74836,0.37418 -0.18709,0.0624 -0.37417,0.12472 -0.56126,0.18709 -0.0624,0.0624 -0.10821,0.14764 -0.18709,0.18708 -0.17639,0.0882 -0.4035,0.0688 -0.56127,0.18709 -0.11156,0.0837 -0.0885,0.27558 -0.18709,0.37418 -0.0986,0.0986 -0.27557,0.0885 -0.37417,0.18709 -0.0441,0.0441 0,0.12472 0,0.18709 -0.0624,0.0624 -0.11371,0.13816 -0.18709,0.18708 -0.11603,0.0774 -0.27558,0.0885 -0.37418,0.18709 -0.0441,0.0441 0.0197,0.12793 0,0.18709 -0.0441,0.1323 -0.14299,0.24189 -0.18709,0.37418 -0.0197,0.0592 0.0279,0.13131 0,0.18709 -0.0394,0.0789 -0.14765,0.1082 -0.18709,0.18709 -0.0139,0.0278 -0.0137,0.70727 0,0.74835 0.0441,0.13229 0.0885,0.27558 0.18709,0.37418 0.34909,0.34909 0.54808,0.087 0.74836,0.18709 0.0789,0.0394 0.1082,0.14765 0.18708,0.18709 0.0558,0.0279 0.13131,-0.0279 0.18709,0 0.0789,0.0394 0.10821,0.14764 0.18709,0.18709 0.0596,0.0298 0.76824,0 0.93545,0 0.0624,0 0.14299,-0.0441 0.18708,0 0.0441,0.0441 -0.0441,0.14299 0,0.18708 0.0882,0.0882 0.26262,-0.0558 0.37418,0 0.0789,0.0394 0.10342,0.1592 0.18709,0.18709 0.85168,0 0.0107,-0.0882 0.56126,0.18709 0.11156,0.0558 0.26263,-0.0558 0.37418,0 0.0789,0.0394 0.10821,0.14765 0.18709,0.18709 0.0558,0.0279 0.14299,-0.0441 0.18709,0 0.0986,0.0986 0.0885,0.27557 0.18709,0.37418 0.0441,0.0441 0.12793,-0.0197 0.18709,0 0.13229,0.0441 0.23889,0.15327 0.37418,0.18709 1.15507,0.28876 -0.11253,-0.16845 0.56126,0 0.19132,0.0478 0.36995,0.13925 0.56127,0.18709 0.0605,0.0151 0.12792,-0.0197 0.18708,0 0.1323,0.0441 0.24189,0.14299 0.37418,0.18708 0.15697,0.0523 0.82973,-0.0528 0.93545,0 0.20111,0.10056 0.35249,0.29067 0.56126,0.37418 0.11581,0.0463 0.24945,0 0.37418,0 0.14388,0 0.94947,-0.0433 1.12253,0 0.19132,0.0478 0.36789,0.14841 0.56127,0.18709 0.1223,0.0245 0.24945,0 0.37417,0 0.37418,0 0.74836,0 1.12254,0 0.0624,0 0.13131,-0.0279 0.18709,0 0.0789,0.0394 0.1082,0.14765 0.18708,0.18709 0.14968,0.0748 0.4116,-0.0748 0.56127,0 0.0789,0.0394 0.10821,0.14765 0.18709,0.18709 0.0558,0.0279 0.12473,0 0.18709,0 0.12472,0.0624 0.25815,0.10973 0.37417,0.18709 0.0734,0.0489 0.10821,0.14764 0.18709,0.18708 0.0558,0.0279 0.143,-0.0441 0.18709,0 0.0441,0.0441 -0.0197,0.12793 0,0.18709 0.0456,0.13673 0.20293,0.47565 0.37418,0.56127 0.0558,0.0279 0.13131,-0.0279 0.18709,0 0.85623,0.42812 -0.7939,-0.0775 0.56127,0.37418 0.0592,0.0197 0.14299,-0.0441 0.18708,0 0.0441,0.0441 -0.0279,0.13131 0,0.18708 0.0789,0.15777 0.3184,0.20685 0.37418,0.37418 0.0394,0.11833 -0.0558,0.26262 0,0.37418 0.0279,0.0558 0.14299,-0.0441 0.18709,0 0.12482,0.12481 -0.12482,0.24936 0,0.37418 0.0441,0.0441 0.14299,-0.0441 0.18709,0 0.0441,0.0441 0,0.12472 0,0.18709 0,0.1762 0.0355,0.82901 0,0.93544 -0.0279,0.0837 -0.12473,0.12473 -0.18709,0.18709 -0.0624,0.0624 -0.12473,0.12472 -0.18709,0.18709 -0.0624,0.0624 -0.10821,0.14764 -0.18709,0.18708 -0.0558,0.0279 -0.12792,-0.0197 -0.18709,0 -0.67825,0.22609 -0.13315,0.0888 -0.56126,0.37418 -0.11603,0.0773 -0.27558,0.0885 -0.37418,0.18709 -0.22787,0.22787 -0.0876,0.418 -0.37418,0.56127 -0.17639,0.0882 -0.38488,0.0989 -0.56127,0.18709 -0.0789,0.0394 -0.1082,0.14764 -0.18708,0.18709 -0.0558,0.0279 -0.13131,-0.0279 -0.18709,0 -0.0789,0.0394 -0.10342,0.15919 -0.18709,0.18708 -0.11833,0.0394 -0.25585,-0.0394 -0.37418,0 -0.0837,0.0279 -0.1082,0.14765 -0.18709,0.18709 -0.0677,0.0338 -0.80531,0 -0.93544,0 -0.43654,0 -0.87308,0 -1.30962,0 -0.18709,0 -0.37418,0 -0.56127,0 -0.12472,0 -0.25585,0.0394 -0.37417,0 -0.0837,-0.0279 -0.10342,-0.1592 -0.18709,-0.18709 -0.10347,-0.0345 -0.93412,0 -1.12253,0 -0.49891,0 -0.99781,0 -1.49671,0 -0.18709,0 -0.37673,0.0308 -0.56127,0 -0.19453,-0.0324 -0.36994,-0.13926 -0.56126,-0.18708 -0.12101,-0.0303 -0.24946,0 -0.37418,0 -0.37418,0 -0.74836,0 -1.12254,0 -0.0624,0 -0.12472,0 -0.18708,0 -0.0624,0 -0.13131,0.0279 -0.18709,0 -0.0789,-0.0394 -0.10821,-0.14765 -0.18709,-0.18709 -0.0558,-0.0279 -0.12473,0 -0.18709,0 -0.39304,0 -0.20333,0.0346 -0.74835,-0.37418 -0.14112,-0.10583 -0.21641,-0.29529 -0.37418,-0.37418 -0.0558,-0.0279 -0.12473,0 -0.18709,0 -0.12473,0 -0.26262,0.0558 -0.37418,0 -0.0558,-0.0279 -0.0441,-0.14299 0,-0.18709 0.0441,-0.0441 0.12473,0 0.18709,0"
       id="path10480"
       inkscape:connector-curvature="0" />
    <path
       style="fill:none;stroke:#000000;stroke-width:0.26458332px;stroke-linecap:butt;stroke-linejoin:miter;stroke-opacity:1"
       d="m 139.94232,165.10249 c 0.0624,0.31181 0.15197,0.6194 0.18709,0.93544 0.0275,0.24793 0,0.4989 0,0.74836 0,0.4989 0,0.9978 0,1.4967 0,0.31182 0.0558,0.62866 0,0.93545 -0.0705,0.38805 -0.30934,0.73348 -0.37418,1.12253 -0.0615,0.36909 0.0311,0.74965 0,1.12253 -0.0315,0.37803 -0.15558,0.74451 -0.18708,1.12253 -0.0311,0.37289 0.0734,0.75562 0,1.12254 -0.0547,0.27347 -0.31949,0.47487 -0.37418,0.74835 -0.0734,0.36691 0,0.74835 0,1.12253 0,0.31182 0,0.62363 0,0.93545 0,0.4989 0,0.9978 0,1.4967 0,0.24946 0,0.49891 0,0.74836 0,0.18709 -0.0308,0.37672 0,0.56126 0.0324,0.19453 0.14841,0.36789 0.18709,0.56127 0.0244,0.1223 -0.0245,0.25188 0,0.37418 0.0387,0.19338 0.13925,0.36994 0.18709,0.56127 0.0151,0.0605 -0.0279,0.1313 0,0.18708 0.0394,0.0789 0.14764,0.10821 0.18708,0.18709 0.0279,0.0558 -0.0197,0.12793 0,0.18709 0.0441,0.13229 0.14299,0.24189 0.18709,0.37418 0.0352,0.10555 0,0.43833 0,0.56126 0,0.31182 0,0.62363 0,0.93545 0,0.12472 -0.0394,0.25585 0,0.37418 0.0441,0.13229 0.14299,0.24188 0.18709,0.37417 0.0197,0.0592 0,0.12473 0,0.18709 0,0.18709 0,0.37418 0,0.56127 0,0.37417 0,0.74835 0,1.12253 0,0.24945 0,0.4989 0,0.74835 0,0.0624 0,0.12473 0,0.18709 0,0.0624 0.0624,0.18709 0,0.18709 -0.0624,0 0,-0.12473 0,-0.18709 0,-0.0624 0,-0.12472 0,-0.18709 0,-0.43654 0,-0.87308 0,-1.30962"
       id="path10482"
       inkscape:connector-curvature="0" />
    <path
       style="fill:none;stroke:#000000;stroke-width:0.26458332px;stroke-linecap:butt;stroke-linejoin:miter;stroke-opacity:1"
       d="m 141.81321,168.65717 c 0.43654,-0.68599 0.77418,-1.44605 1.30962,-2.05797 0.1232,-0.1408 0,0.37417 0,0.56126 0,0.49891 0,0.99781 0,1.49671 0,1.43435 0,2.86869 0,4.30304 0,0.26278 0.0387,2.01309 0,2.24506 -0.0145,0.087 -0.14765,0.10821 -0.18709,0.18709 -0.0588,0.11759 0.0588,0.63077 0,0.74836 -0.10056,0.20111 -0.27362,0.36015 -0.37418,0.56126 -0.0279,0.0558 0,0.12473 0,0.18709 0,0.18709 0,0.37418 0,0.56127 0,0.43654 0,0.87308 0,1.30962 0,0.12473 0,0.24945 0,0.37418 0,0.0624 -0.0197,0.12792 0,0.18708 0.0441,0.1323 0.15327,0.2389 0.18709,0.37418 0.0302,0.121 -0.0394,0.25585 0,0.37418 0.0279,0.0837 0.14765,0.1082 0.18709,0.18709 0.0279,0.0558 -0.0151,0.12659 0,0.18709 0.0478,0.19132 0.13926,0.36994 0.18709,0.56126 0.0587,0.23478 -0.0587,0.51358 0,0.74836 0.0338,0.13528 0.14299,0.24188 0.18709,0.37417 0.0197,0.0592 0,0.12473 0,0.18709 0,0.12473 0,0.24946 0,0.37418 0,0.31181 0,0.62363 0,0.93545 0,0.12472 -0.0245,0.25187 0,0.37417 0.0387,0.19338 0.13926,0.36995 0.18709,0.56127 0.0151,0.0605 0,0.12472 0,0.18709 0,0.24945 0,0.4989 0,0.74835 0,0.62363 0,1.24726 0,1.87089"
       id="path10484"
       inkscape:connector-curvature="0" />
    <path
       style="fill:none;stroke:#000000;stroke-width:0.26458332px;stroke-linecap:butt;stroke-linejoin:miter;stroke-opacity:1"
       d="m 140.50359,152.19337 c -0.86881,-8.3718 0.74835,-12.90912 0.74835,-12.90912"
       id="path10486"
       inkscape:connector-curvature="0" />
    <path
       style="fill:none;stroke:#000000;stroke-width:0.26458332px;stroke-linecap:butt;stroke-linejoin:miter;stroke-opacity:1"
       d="m 146.57916,154.91875 c -3.0427,-4.10104 -3.57187,-4.10104 -3.30729,-7.14375 0.26459,-3.04271 0.26459,-3.04271 0.26459,-3.04271"
       id="path10488"
       inkscape:connector-curvature="0" />
  </g>
</svg>
