<?xml version="1.0" encoding="UTF-8" standalone="no"?>
<!-- Created with Inkscape (http://www.inkscape.org/) -->

<svg
   xmlns:dc="http://purl.org/dc/elements/1.1/"
   xmlns:cc="http://creativecommons.org/ns#"
   xmlns:rdf="http://www.w3.org/1999/02/22-rdf-syntax-ns#"
   xmlns:svg="http://www.w3.org/2000/svg"
   xmlns="http://www.w3.org/2000/svg"
   xmlns:sodipodi="http://sodipodi.sourceforge.net/DTD/sodipodi-0.dtd"
   xmlns:inkscape="http://www.inkscape.org/namespaces/inkscape"
   width="175.17731mm"
   height="134.98541mm"
   viewBox="0 0 175.17731 134.98541"
   version="1.1"
   id="svg8"
   inkscape:version="0.92.1 r15371"
   sodipodi:docname="worminjail.svg">
  <defs
     id="defs2" />
  <sodipodi:namedview
     id="base"
     pagecolor="#ffffff"
     bordercolor="#666666"
     borderopacity="1.0"
     inkscape:pageopacity="0.0"
     inkscape:pageshadow="2"
     inkscape:zoom="1.4142136"
     inkscape:cx="181.31184"
     inkscape:cy="268.46844"
     inkscape:document-units="mm"
     inkscape:current-layer="layer1"
     showgrid="false"
     inkscape:window-width="1920"
     inkscape:window-height="1001"
     inkscape:window-x="-9"
     inkscape:window-y="-9"
     inkscape:window-maximized="1" />
  <metadata
     id="metadata5">
    <rdf:RDF>
      <cc:Work
         rdf:about="">
        <dc:format>image/svg+xml</dc:format>
        <dc:type
           rdf:resource="http://purl.org/dc/dcmitype/StillImage" />
        <dc:title />
      </cc:Work>
    </rdf:RDF>
  </metadata>
  <g
     inkscape:label="Layer 1"
     inkscape:groupmode="layer"
     id="layer1"
     transform="translate(-15.721476,-91.76397)">
    <ellipse
       style="opacity:1;fill:#ffffff;fill-opacity:1;stroke:#767374;stroke-width:0.68059009;stroke-miterlimit:4;stroke-dasharray:none;stroke-opacity:1"
       id="path4498-3"
       cx="146.93625"
       cy="111.60043"
       rx="2.2886238"
       ry="3.3705187"
       transform="rotate(5.0781946)" />
    <path
       style="fill:#ffffff;fill-opacity:1;stroke:#000000;stroke-width:0.2;stroke-linecap:butt;stroke-linejoin:miter;stroke-miterlimit:4;stroke-dasharray:none;stroke-opacity:1"
       d="m 136.45885,136.4806 0.0992,-2.29857 h -9.31002 l -2.21589,1.63711 0.14883,0.82682 z"
       id="path5163"
       inkscape:connector-curvature="0" />
    <path
       style="fill:none;stroke:#000000;stroke-width:0.16500001;stroke-linecap:butt;stroke-linejoin:miter;stroke-miterlimit:4;stroke-dasharray:none;stroke-opacity:1"
       d="m 127.21496,134.62851 -0.0992,1.85209"
       id="path5165-6"
       inkscape:connector-curvature="0" />
    <path
       style="fill:none;stroke:#000000;stroke-width:0.16500001;stroke-linecap:butt;stroke-linejoin:miter;stroke-miterlimit:4;stroke-dasharray:none;stroke-opacity:1"
       d="m 129.01744,134.397 -0.0992,1.85209"
       id="path5165-1"
       inkscape:connector-curvature="0" />
    <path
       style="fill:none;stroke:#000000;stroke-width:0.16500001;stroke-linecap:butt;stroke-linejoin:miter;stroke-miterlimit:4;stroke-dasharray:none;stroke-opacity:1"
       d="m 130.85299,134.51276 -0.0992,1.85209"
       id="path5165-0"
       inkscape:connector-curvature="0" />
    <path
       style="fill:none;stroke:#000000;stroke-width:0.16500001;stroke-linecap:butt;stroke-linejoin:miter;stroke-miterlimit:4;stroke-dasharray:none;stroke-opacity:1"
       d="m 132.17591,134.43007 -0.0992,1.85209"
       id="path5165-2"
       inkscape:connector-curvature="0" />
    <path
       style="fill:none;stroke:#000000;stroke-width:0.16500001;stroke-linecap:butt;stroke-linejoin:miter;stroke-miterlimit:4;stroke-dasharray:none;stroke-opacity:1"
       d="m 133.69725,134.41354 -0.0992,1.85209"
       id="path5165-5"
       inkscape:connector-curvature="0" />
    <path
       style="fill:none;stroke:#000000;stroke-width:0.16500001;stroke-linecap:butt;stroke-linejoin:miter;stroke-miterlimit:4;stroke-dasharray:none;stroke-opacity:1"
       d="m 135.21862,134.397 -0.0992,1.85209"
       id="path5165"
       inkscape:connector-curvature="0" />
    <path
       style="fill:#ff979f;fill-opacity:1;stroke:#b95e7f;stroke-width:0.76499999;stroke-linecap:butt;stroke-linejoin:miter;stroke-miterlimit:4;stroke-dasharray:none;stroke-opacity:1"
       d="m 99.156994,199.17935 c 0,0 0.133634,3.74177 -7.884453,4.54358 -8.018084,0.80181 -28.54592,4.4607 -35.472036,-0.56396 -12.754293,-9.79969 -2.580599,-25.03042 5.257219,-28.86241 12.695301,-6.09374 24.588795,-3.34087 28.731471,-2.80633 4.142679,0.53454 6.427835,0.0267 7.897817,-2.51233 1.46998,-2.53907 2.939968,-7.61719 1.737252,-13.36348 -1.202714,-5.7463 -3.30078,-6.85547 -3.207234,-16.03617 0.374176,-4.78413 3.674956,-11.1986 6.50801,-13.2432 3.39432,-3.16715 13.53765,-5.7628 22.51746,-4.02241 11.16249,1.8075 19.17695,12.49419 10.45024,11.86676 0,0 -4.33429,0.14006 -7.25549,-0.0325 -3.12211,-0.1844 -5.36771,3.43974 -1.11005,2.61162 3.63487,-0.62808 10.58387,-0.12027 10.58387,-0.12027 0,0 0.735,1.95107 -1.95106,4.0625 -4.36986,1.73725 -6.61492,2.05798 -12.08058,0.88199 -4.7681,-1.0259 -5.7463,-1.60362 -6.28084,-0.66818 -0.53454,0.93545 -1.20271,3.74178 0,7.88446 1.20271,4.14267 2.13816,4.81085 3.0736,9.75533 0.93544,4.94449 -1.01563,13.95148 -2.68606,17.27898 -1.5356,3.05892 -3.90213,7.29645 -9.60834,9.84888 -6.64164,1.33634 -13.630743,-1.87089 -22.851543,-1.06908 -9.220798,0.80181 -16.570709,1.73725 -16.570709,1.73725 0,0 6.013564,0.53454 12.428032,2.13816 6.414468,1.60362 17.372519,5.34539 17.773424,10.69078 z"
       id="path4496"
       inkscape:connector-curvature="0"
       sodipodi:nodetypes="csccscsccccscccscssscscscc" />
    <ellipse
       style="opacity:1;fill:#ffffff;fill-opacity:1;stroke:#767374;stroke-width:0.79508138;stroke-miterlimit:4;stroke-dasharray:none;stroke-opacity:1"
       id="path4498"
       cx="137.93631"
       cy="114.686"
       rx="2.6736243"
       ry="3.9375196"
       transform="rotate(5.0781945)" />
    <path
       style="fill:none;stroke:#747474;stroke-width:0.465;stroke-linecap:butt;stroke-linejoin:miter;stroke-miterlimit:4;stroke-dasharray:none;stroke-opacity:1"
       d="m 129.98807,126.00516 c 0,0 2.13454,-2.6331 4.4004,-0.57028"
       id="path4515"
       inkscape:connector-curvature="0" />
    <path
       style="fill:none;stroke:#707070;stroke-width:0.565;stroke-linecap:butt;stroke-linejoin:miter;stroke-miterlimit:4;stroke-dasharray:none;stroke-opacity:1"
       d="m 124.78814,125.11228 -8.55931,-0.14031 c 0,0 -0.70158,0.60804 -0.56126,1.35639"
       id="path4517"
       inkscape:connector-curvature="0" />
    <ellipse
       style="opacity:1;fill:#000000;fill-opacity:1;stroke:#707070;stroke-width:0.065;stroke-miterlimit:4;stroke-dasharray:none;stroke-opacity:1"
       id="path4519"
       cx="140.93304"
       cy="112.10546"
       rx="0.65481037"
       ry="1.2160764"
       transform="rotate(6.1725067)" />
    <ellipse
       style="opacity:1;fill:#000000;fill-opacity:1;stroke:#707070;stroke-width:0.065;stroke-miterlimit:4;stroke-dasharray:none;stroke-opacity:1"
       id="path4519-0"
       cx="152.24168"
       cy="105.37193"
       rx="0.65481037"
       ry="1.2160764"
       transform="rotate(7.5873665)" />
    <path
       style="fill:#8c8c8c;fill-opacity:1;stroke:#8c8c8c;stroke-width:0.26458332px;stroke-linecap:butt;stroke-linejoin:miter;stroke-opacity:1"
       d="m 130.21725,122.53142 c 0.14285,-0.3263 0.52539,-1.39912 0.52539,-1.39912 0,0 -5.78611,-1.77563 -8.36105,-1.46825 -2.57494,0.30738 -2.57458,0.26062 -2.57458,0.26062 z"
       id="path4536"
       inkscape:connector-curvature="0" />
    <path
       style="fill:#8c8c8c;fill-opacity:1;stroke:#8c8c8c;stroke-width:0.26458332px;stroke-linecap:butt;stroke-linejoin:miter;stroke-opacity:1"
       d="m 132.22491,122.74158 -0.8419,-1.30962 c 0,0 4.16272,-3.50792 6.26747,-4.63045 2.10475,-1.12253 3.04019,-1.73057 2.05798,-1.07576 -0.98222,0.65481 -6.68842,5.79976 -7.48355,7.01583 z"
       id="path4538"
       inkscape:connector-curvature="0"
       sodipodi:nodetypes="ccscc" />
    <path
       style="fill:#ff779f;fill-opacity:1;stroke:#b35e7e;stroke-width:0.465;stroke-linecap:butt;stroke-linejoin:miter;stroke-miterlimit:4;stroke-dasharray:none;stroke-opacity:1"
       d="m 98.755728,155.05104 c 0,0 -0.463021,8.7974 0.396875,10.05417 0.859897,1.25677 3.042707,3.37344 6.879167,4.89479 3.96822,1.5736 12.83229,0.7276 14.41979,-2.84427 1.26987,-0.78725 1.26369,-11.85821 -0.13229,-10.71563 -0.99219,0.72761 -3.70417,3.83646 -7.60677,3.77032 -3.90261,-0.0661 -13.626043,-2.18282 -13.956772,-5.15938 z"
       id="path4540"
       inkscape:connector-curvature="0"
       sodipodi:nodetypes="csscccc" />
    <path
       style="fill:#ff779f;fill-opacity:1;stroke:#b35e7e;stroke-width:0.37753674;stroke-linecap:butt;stroke-linejoin:miter;stroke-miterlimit:4;stroke-dasharray:none;stroke-opacity:1"
       d="m 72.995431,186.21491 c 0,0 8.185956,-0.40672 9.229948,-1.11463 1.043994,-0.7079 2.702804,-2.41562 3.587933,-5.23419 0.915538,-2.91536 -1.066238,-9.06494 -4.579413,-9.88184 -0.898929,-0.8256 -11.120668,0.0994 -9.876566,0.98398 0.806242,0.63571 4.044189,2.28017 4.511711,5.02412 0.46756,2.74397 -0.169948,9.74295 -2.873613,10.22256 z"
       id="path4540-3"
       inkscape:connector-curvature="0"
       sodipodi:nodetypes="csscccc" />
    <ellipse
       style="opacity:1;fill:#000000;fill-opacity:1;stroke:#000000;stroke-width:0.11546283;stroke-miterlimit:4;stroke-dasharray:none;stroke-opacity:1"
       id="path5206"
       cx="135.40544"
       cy="131.98779"
       rx="0.36967379"
       ry="0.60353452" />
    <ellipse
       style="opacity:1;fill:#000000;fill-opacity:1;stroke:#000000;stroke-width:0.11546283;stroke-miterlimit:4;stroke-dasharray:none;stroke-opacity:1"
       id="path5206-1"
       cx="137.7908"
       cy="131.70717"
       rx="0.36967379"
       ry="0.60353458" />
    <path
       style="fill:none;stroke:#b95e7f;stroke-width:0.72874123;stroke-linecap:butt;stroke-linejoin:miter;stroke-miterlimit:4;stroke-dasharray:none;stroke-opacity:1"
       d="m 68.955538,186.35038 c -5.631227,-0.61365 -7.401809,0.0846 -7.401809,0.0846"
       id="path5223"
       inkscape:connector-curvature="0" />
    <path
       style="fill:none;stroke:#b95e7f;stroke-width:0.465;stroke-linecap:butt;stroke-linejoin:miter;stroke-miterlimit:4;stroke-dasharray:none;stroke-opacity:1"
       d="m 118.52573,140.31648 c 0,0 -3.52599,-1.01501 -5.01035,-0.28766"
       id="path5225"
       inkscape:connector-curvature="0"
       sodipodi:nodetypes="cc" />
    <path
       style="fill:none;stroke:#b95e7f;stroke-width:0.26458332px;stroke-linecap:butt;stroke-linejoin:miter;stroke-opacity:1"
       d="m 69.337909,205.73007 c 0,0 -2.500108,-0.57533 -3.367598,-3.3676 -0.776062,-2.49798 0.986658,-5.38324 1.403167,-6.17392"
       id="path5227"
       inkscape:connector-curvature="0"
       sodipodi:nodetypes="csc" />
    <path
       style="fill:none;stroke:#b95e7f;stroke-width:0.26458332px;stroke-linecap:butt;stroke-linejoin:miter;stroke-opacity:1"
       d="m 54.059614,180.13608 c 0,0 1.249264,-2.24073 4.172668,-2.29571 2.615293,-0.0492 4.89502,2.44776 5.538305,3.06812"
       id="path5227-7"
       inkscape:connector-curvature="0"
       sodipodi:nodetypes="csc" />
    <path
       style="fill:none;stroke:#b95e7f;stroke-width:0.26458332px;stroke-linecap:butt;stroke-linejoin:miter;stroke-opacity:1"
       d="m 95.733294,184.9938 c 0,0 2.50011,-0.57533 3.367596,-3.3676 0.776062,-2.49798 -0.986656,-5.38324 -1.403166,-6.17392"
       id="path5227-5"
       inkscape:connector-curvature="0"
       sodipodi:nodetypes="csc" />
    <path
       style="fill:none;stroke:#b95e7f;stroke-width:0.26458332px;stroke-linecap:butt;stroke-linejoin:miter;stroke-opacity:1"
       d="m 109.36104,147.45786 c 0,0 -4.5045,0.55141 -7.36722,0.0362 -2.225201,-0.4005 -5.141558,-2.46173 -5.849727,-3.13071"
       id="path5227-5-2"
       inkscape:connector-curvature="0"
       sodipodi:nodetypes="csc" />
    <path
       style="fill:#8f8f8f;fill-opacity:1;stroke:#000000;stroke-width:1.48000002;stroke-linecap:butt;stroke-linejoin:miter;stroke-miterlimit:4;stroke-dasharray:none;stroke-opacity:1"
       d="M 190.15879,92.50397 H 16.990135 v 9.88819 H 190.15879 Z"
       id="path5141"
       inkscape:connector-curvature="0" />
    <path
       style="fill:#8f8f8f;fill-opacity:1;stroke:#000000;stroke-width:1.48000002;stroke-linecap:butt;stroke-linejoin:miter;stroke-miterlimit:4;stroke-dasharray:none;stroke-opacity:1"
       d="M 189.63013,216.1212 H 16.461476 v 9.88818 H 189.63013 Z"
       id="path5141-9"
       inkscape:connector-curvature="0" />
    <path
       style="fill:#8f8f8f;fill-opacity:1;stroke:#000000;stroke-width:0.97891706;stroke-linecap:butt;stroke-linejoin:miter;stroke-miterlimit:4;stroke-dasharray:none;stroke-opacity:1"
       d="m 26.888341,102.2369 v 114.03208 h 3.931985 l 0.08846,-114.0336 z"
       id="path5158"
       inkscape:connector-curvature="0"
       sodipodi:nodetypes="ccccc" />
    <path
       style="fill:#8f8f8f;fill-opacity:1;stroke:#000000;stroke-width:0.97891706;stroke-linecap:butt;stroke-linejoin:miter;stroke-miterlimit:4;stroke-dasharray:none;stroke-opacity:1"
       d="m 46.203116,102.24305 v 114.03207 h 3.931987 l 0.08846,-114.03359 z"
       id="path5158-6"
       inkscape:connector-curvature="0"
       sodipodi:nodetypes="ccccc" />
    <path
       style="fill:#8f8f8f;fill-opacity:1;stroke:#000000;stroke-width:0.97891706;stroke-linecap:butt;stroke-linejoin:miter;stroke-miterlimit:4;stroke-dasharray:none;stroke-opacity:1"
       d="m 64.723944,102.24305 v 114.03207 h 3.931988 l 0.0885,-114.03359 z"
       id="path5158-0"
       inkscape:connector-curvature="0"
       sodipodi:nodetypes="ccccc" />
    <path
       style="fill:#8f8f8f;fill-opacity:1;stroke:#000000;stroke-width:0.97891951;stroke-linecap:butt;stroke-linejoin:miter;stroke-miterlimit:4;stroke-dasharray:none;stroke-opacity:1"
       d="m 83.559592,102.24305 v 114.03207 h 3.93198 l 0.0885,-114.03358 z"
       id="path5158-3"
       inkscape:connector-curvature="0"
       sodipodi:nodetypes="ccccc" />
    <path
       style="fill:#8f8f8f;fill-opacity:1;stroke:#000000;stroke-width:0.9789173;stroke-linecap:butt;stroke-linejoin:miter;stroke-miterlimit:4;stroke-dasharray:none;stroke-opacity:1"
       d="m 101.76565,102.24305 v 114.03207 h 3.93198 l 0.0885,-114.03358 z"
       id="path5158-3-1"
       inkscape:connector-curvature="0"
       sodipodi:nodetypes="ccccc" />
    <path
       style="fill:#8f8f8f;fill-opacity:1;stroke:#000000;stroke-width:0.97891921;stroke-linecap:butt;stroke-linejoin:miter;stroke-miterlimit:4;stroke-dasharray:none;stroke-opacity:1"
       d="m 120.60139,102.24305 v 114.03207 h 3.93198 l 0.0885,-114.03358 z"
       id="path5158-3-8"
       inkscape:connector-curvature="0"
       sodipodi:nodetypes="ccccc" />
    <path
       style="fill:#8f8f8f;fill-opacity:1;stroke:#000000;stroke-width:0.97891921;stroke-linecap:butt;stroke-linejoin:miter;stroke-miterlimit:4;stroke-dasharray:none;stroke-opacity:1"
       d="m 139.12234,102.24305 v 114.03207 h 3.93198 l 0.0885,-114.03358 z"
       id="path5158-3-3"
       inkscape:connector-curvature="0"
       sodipodi:nodetypes="ccccc" />
    <path
       style="fill:#8f8f8f;fill-opacity:1;stroke:#000000;stroke-width:0.978917;stroke-linecap:butt;stroke-linejoin:miter;stroke-miterlimit:4;stroke-dasharray:none;stroke-opacity:1"
       d="m 157.59307,102.24305 v 114.03207 h 3.93199 l 0.0885,-114.03359 z"
       id="path5158-3-5"
       inkscape:connector-curvature="0"
       sodipodi:nodetypes="ccccc" />
    <path
       style="fill:#8f8f8f;fill-opacity:1;stroke:#000000;stroke-width:0.97891921;stroke-linecap:butt;stroke-linejoin:miter;stroke-miterlimit:4;stroke-dasharray:none;stroke-opacity:1"
       d="m 174.52603,102.24305 v 114.03207 h 3.93198 l 0.0885,-114.03359 z"
       id="path5158-3-4"
       inkscape:connector-curvature="0"
       sodipodi:nodetypes="ccccc" />
    <path
       style="fill:#a2a2a2;fill-opacity:1;stroke:#000000;stroke-width:1.06500006;stroke-linecap:butt;stroke-linejoin:miter;stroke-miterlimit:4;stroke-dasharray:none;stroke-opacity:1"
       d="m 95.559962,164.57023 h 17.042908 v 13.75833 H 95.669552 Z"
       id="path5250"
       inkscape:connector-curvature="0"
       sodipodi:nodetypes="ccccc" />
    <g
       id="g5266"
       transform="translate(5.9918488,-46.501642)">
      <ellipse
         ry="3.0401909"
         rx="2.9466465"
         cy="216.87929"
         cx="97.894142"
         id="path5260"
         style="opacity:1;fill:#000000;fill-opacity:1;stroke-width:1.06500006;stroke-miterlimit:4;stroke-dasharray:none" />
      <rect
         y="218.32921"
         x="96.444206"
         height="4.8643055"
         width="2.8998742"
         id="rect5262"
         style="opacity:1;fill:#000000;fill-opacity:1;stroke-width:1.06500006;stroke-miterlimit:4;stroke-dasharray:none" />
    </g>
    <path
       style="fill:#a2a2a2;fill-opacity:1;stroke:#000000;stroke-width:0.56500006;stroke-linecap:butt;stroke-linejoin:miter;stroke-miterlimit:4;stroke-dasharray:none;stroke-opacity:1"
       d="m 98.755728,164.31193 v -9.26089 c 0,0 2.993422,-2.61924 5.144922,-2.52569 2.15151,0.0935 4.77076,2.15151 5.0514,2.52569 0.28063,0.37418 0,9.23751 0,9.23751 l -1.78468,0.0895 0.10092,-8.53191 c 0,0 -1.89428,-2.12813 -3.83531,-1.70719 -1.44993,0.25725 -2.71278,1.37978 -2.89987,1.66042 -0.18709,0.28063 -0.0702,8.51253 -0.0702,8.51253 z"
       id="path5268"
       inkscape:connector-curvature="0"
       sodipodi:nodetypes="ccccccccccc" />
  </g>
</svg>
